{"glyphs":{"0":{"ha":1061,"x_min":24,"x_max":1038,"o":"m 871 972 q 941 956 908 972 q 996 913 974 940 q 1028 851 1018 886 q 1029 779 1038 817 l 900 131 q 844 36 889 72 q 740 0 799 0 l 190 0 q 119 16 151 0 q 65 59 86 32 q 33 122 43 86 q 31 194 24 157 l 161 842 q 217 936 172 900 q 319 972 261 972 l 871 972 m 344 239 q 369 226 354 226 l 601 226 q 633 253 626 226 l 724 707 q 717 734 726 722 q 692 746 707 746 l 460 746 q 440 738 449 746 q 428 719 431 731 l 338 265 q 344 239 335 250 z "},"1":{"ha":510,"x_min":28,"x_max":486,"o":"m 476 851 q 478 779 486 817 l 322 0 l 31 0 l 181 746 l 28 746 l 74 972 l 319 972 q 391 956 358 972 q 445 913 424 940 q 476 851 467 886 z "},"2":{"ha":993,"x_min":28,"x_max":969,"o":"m 310 615 l 638 615 l 654 703 q 647 733 657 719 q 619 746 636 746 l 165 746 l 211 972 l 803 972 q 873 956 840 972 q 928 913 906 940 q 960 851 950 886 q 961 779 969 817 l 886 421 l 431 421 q 410 414 419 421 q 399 396 401 407 l 365 226 l 886 226 l 842 0 l 28 0 l 119 458 q 144 522 126 493 q 186 571 161 550 q 243 603 211 592 q 310 615 275 615 z "},"3":{"ha":975,"x_min":28,"x_max":951,"o":"m 593 615 q 613 623 604 615 q 625 642 622 631 l 638 707 q 631 734 640 722 q 606 746 621 746 l 142 746 l 188 972 l 785 972 q 856 956 824 972 q 910 913 889 940 q 942 851 932 886 q 944 779 951 817 l 913 622 q 868 548 904 578 q 786 518 832 518 l 807 518 q 863 505 838 518 q 907 470 889 492 q 933 421 925 449 q 933 364 940 393 l 886 131 q 831 36 875 72 q 728 0 786 0 l 28 0 l 74 226 l 588 226 q 608 234 599 226 q 619 253 617 242 l 646 382 q 639 409 649 397 q 614 421 629 421 l 160 421 l 199 615 l 593 615 z "},"4":{"ha":1000,"x_min":28,"x_max":971,"o":"m 394 972 l 331 654 q 338 627 328 639 q 363 615 347 615 l 582 615 q 602 623 593 615 q 614 642 611 631 l 679 972 l 971 972 l 776 0 l 485 0 l 569 421 l 190 421 q 65 481 113 421 q 30 549 32 522 q 28 588 28 576 q 31 606 28 589 q 40 651 35 624 q 52 713 46 678 q 65 783 58 747 q 103 972 82 867 l 394 972 z "},"5":{"ha":1028,"x_min":28,"x_max":1000,"o":"m 467 746 l 442 615 l 736 615 q 806 599 774 615 q 861 557 839 583 q 893 497 883 531 q 896 425 903 463 l 835 129 q 778 36 822 72 q 675 0 733 0 l 28 0 l 74 226 l 536 226 q 556 234 547 226 q 568 253 565 242 l 594 382 q 588 409 597 397 q 564 421 579 421 l 114 421 l 224 972 l 1000 972 l 954 746 l 467 746 z "},"6":{"ha":993,"x_min":24,"x_max":964,"o":"m 964 972 l 919 746 l 460 746 q 440 738 449 746 q 428 719 431 731 l 407 615 l 733 615 q 803 599 771 615 q 857 557 835 583 q 889 497 879 531 q 892 425 899 463 l 831 129 q 775 36 819 72 q 672 0 731 0 l 190 0 q 119 16 151 0 q 65 59 86 32 q 33 122 43 86 q 31 194 24 157 l 161 842 q 217 936 172 900 q 319 972 261 972 l 964 972 m 344 239 q 369 226 354 226 l 533 226 q 565 253 558 226 l 592 382 q 585 409 594 397 q 560 421 575 421 l 368 421 l 338 265 q 344 239 335 250 z "},"7":{"ha":860,"x_min":28,"x_max":833,"o":"m 831 933 l 793 746 l 465 0 l 142 0 l 489 746 l 28 746 l 74 972 l 799 972 q 824 960 814 972 q 831 933 833 949 z "},"8":{"ha":1054,"x_min":24,"x_max":1031,"o":"m 31 194 l 75 414 q 120 489 85 460 q 203 518 156 518 l 286 518 q 230 531 256 518 q 186 566 204 544 q 161 615 168 588 q 160 674 154 643 l 193 842 q 249 936 204 900 q 351 972 293 972 l 864 972 q 935 956 903 972 q 990 913 968 940 q 1021 851 1011 886 q 1024 779 1031 817 l 992 622 q 947 548 982 578 q 865 518 911 518 l 894 518 q 951 505 925 518 q 994 470 976 492 q 1020 421 1013 449 q 1021 364 1028 393 l 975 131 q 919 36 964 72 q 815 0 874 0 l 190 0 q 119 16 151 0 q 65 59 86 32 q 33 122 43 86 q 31 194 24 157 m 344 239 q 369 226 354 226 l 675 226 q 695 234 686 226 q 707 253 704 242 l 733 382 q 726 409 736 397 q 701 421 717 421 l 394 421 q 363 396 369 421 l 338 265 q 344 239 335 250 m 454 628 q 479 615 464 615 l 672 615 q 692 623 683 615 q 704 642 701 631 l 717 707 q 710 734 719 722 q 685 746 700 746 l 492 746 q 460 719 467 746 l 447 654 q 454 628 444 639 z "},"9":{"ha":993,"x_min":28,"x_max":969,"o":"m 190 374 q 135 415 157 389 q 103 476 113 442 q 100 547 93 510 l 161 843 q 217 936 172 900 q 319 972 261 972 l 803 972 q 873 956 840 972 q 928 913 906 940 q 960 851 950 886 q 961 779 969 817 l 832 131 q 776 36 821 72 q 672 0 731 0 l 28 0 l 74 226 l 533 226 q 564 253 560 226 l 585 357 l 260 357 q 190 374 222 357 m 407 564 q 432 551 417 551 l 624 551 l 656 707 q 649 734 658 722 q 624 746 639 746 l 460 746 q 440 738 449 746 q 428 719 431 731 l 400 590 q 407 564 397 575 z "},"\u0000":{"ha":0,"x_min":0,"x_max":0,"o":""}," ":{"ha":347,"x_min":0,"x_max":0,"o":""},"\r":{"ha":0,"x_min":0,"x_max":0,"o":""},"\n":{"ha":0,"x_min":0,"x_max":0,"o":""},"!":{"ha":597,"x_min":56,"x_max":542,"o":"m 250 972 l 542 972 l 393 226 l 101 226 l 250 972 m 56 0 l 88 163 l 379 163 l 347 0 l 56 0 z "},"\"":{"ha":542,"x_min":26,"x_max":514,"o":"m 294 583 q 269 595 279 583 q 263 622 260 607 l 332 972 l 514 972 l 356 583 l 294 583 m 29 622 l 99 972 l 281 972 l 121 583 l 60 583 q 35 595 44 583 q 29 622 26 607 z "},"#":{"ha":1351,"x_min":28,"x_max":1324,"o":"m 311 688 l 125 688 l 171 915 l 357 915 l 400 1135 l 660 1135 l 615 915 l 907 915 l 951 1135 l 1211 1135 l 1167 915 l 1324 915 l 1279 688 l 1121 688 l 1040 283 l 1226 283 l 1182 56 l 994 56 l 951 -162 l 692 -162 l 736 56 l 444 56 l 400 -162 l 142 -162 l 185 56 l 28 56 l 74 283 l 231 283 l 311 688 m 489 283 l 781 283 l 863 688 l 571 688 l 489 283 z "},"$":{"ha":1222,"x_min":28,"x_max":1194,"o":"m 74 226 l 736 226 q 756 234 747 226 q 768 253 765 242 l 788 350 q 781 377 790 365 q 756 389 771 389 l 307 389 q 229 407 265 389 q 169 454 193 425 q 134 522 144 483 q 132 603 124 561 l 178 829 q 239 932 190 892 q 353 972 288 972 l 619 972 l 651 1135 l 831 1135 l 797 972 l 1194 972 l 1149 746 l 479 746 q 459 738 468 746 q 447 719 450 731 l 431 639 q 438 612 428 624 q 463 600 447 600 l 831 600 q 899 600 872 600 l 925 599 q 998 577 965 596 q 1053 529 1031 558 q 1085 463 1076 500 q 1086 386 1094 426 l 1038 143 q 976 40 1025 81 q 864 0 928 0 l 603 0 l 571 -162 l 393 -162 l 425 0 l 28 0 l 74 226 z "},"%":{"ha":1324,"x_min":22,"x_max":1301,"o":"m 629 972 l 889 972 l 694 0 l 435 0 l 629 972 m 29 629 l 68 824 q 90 860 72 846 q 132 875 108 875 l 453 875 q 504 851 485 875 q 517 797 524 828 l 478 603 q 456 565 474 579 q 414 551 438 551 l 93 551 q 42 575 61 551 q 29 629 22 599 m 807 175 l 846 369 q 868 407 850 393 q 910 421 886 421 l 1231 421 q 1282 397 1263 421 q 1294 344 1301 374 l 1256 150 q 1233 112 1251 126 q 1192 97 1215 97 l 871 97 q 819 121 839 97 q 807 175 800 144 m 1011 233 q 1024 226 1017 226 l 1089 226 q 1104 240 1101 226 l 1110 272 q 1093 292 1113 292 l 1029 292 q 1014 278 1017 292 l 1008 246 q 1011 233 1006 239 m 233 688 q 246 681 239 681 l 311 681 q 326 694 324 681 l 332 726 q 328 740 333 733 q 315 746 324 746 l 251 746 q 236 732 239 746 l 231 700 q 233 688 228 693 z "},"&":{"ha":1222,"x_min":24,"x_max":1194,"o":"m 31 194 l 75 414 q 120 489 85 460 q 203 518 156 518 l 286 518 q 230 531 256 518 q 186 566 204 544 q 161 615 168 588 q 160 674 154 643 l 193 842 q 249 936 204 900 q 351 972 293 972 l 1061 972 l 1017 746 l 492 746 q 460 719 467 746 l 447 654 q 454 627 444 639 q 479 615 464 615 l 699 615 l 711 681 l 1003 681 l 990 615 l 1194 615 l 1156 421 l 1019 421 q 1021 364 1026 390 l 975 131 q 919 36 964 72 q 815 0 874 0 l 190 0 q 119 16 151 0 q 65 59 86 32 q 33 122 43 86 q 31 194 24 157 m 344 239 q 369 226 354 226 l 675 226 q 695 234 686 226 q 707 253 704 242 l 733 382 q 726 409 736 397 q 701 421 717 421 l 394 421 q 363 396 369 421 l 338 265 q 344 239 335 250 z "},"'":{"ha":308,"x_min":26,"x_max":281,"o":"m 29 622 l 99 972 l 281 972 l 121 583 l 60 583 q 35 595 44 583 q 29 622 26 607 z "},"(":{"ha":633,"x_min":19,"x_max":606,"o":"m 290 147 q 310 106 296 124 q 347 76 325 88 q 394 65 369 65 l 350 -162 q 209 -131 274 -162 q 101 -45 144 -99 q 38 78 57 8 q 35 222 19 147 l 164 874 q 205 978 175 931 q 277 1061 235 1026 q 372 1115 319 1096 q 482 1135 424 1135 l 606 1135 l 560 907 q 460 872 503 907 q 406 781 417 836 l 288 196 q 290 147 283 171 z "},")":{"ha":633,"x_min":28,"x_max":614,"o":"m 263 -143 q 151 -162 210 -162 l 28 -162 l 74 65 q 174 101 131 65 q 228 192 217 136 l 346 778 q 344 826 350 803 q 323 867 338 850 q 286 896 308 885 q 239 907 264 907 l 283 1135 q 424 1103 360 1135 q 533 1017 489 1071 q 595 894 576 964 q 599 750 614 825 l 469 99 q 428 -6 458 42 q 356 -89 399 -54 q 263 -143 314 -124 z "},"*":{"ha":1028,"x_min":28,"x_max":1000,"o":"m 919 940 l 1000 697 l 725 592 l 919 308 l 692 163 l 513 414 l 336 163 l 108 308 l 288 592 l 28 697 l 125 940 l 376 843 l 376 1135 l 651 1135 l 651 843 l 919 940 z "},"+":{"ha":947,"x_min":28,"x_max":919,"o":"m 919 599 l 874 372 l 560 372 l 496 56 l 263 56 l 326 372 l 28 372 l 74 599 l 371 599 l 435 915 l 668 915 l 604 599 l 919 599 z "},",":{"ha":308,"x_min":26,"x_max":281,"o":"m 29 -124 l 99 226 l 281 226 l 121 -162 l 60 -162 q 35 -151 44 -162 q 29 -124 26 -139 z "},"-":{"ha":867,"x_min":28,"x_max":838,"o":"m 28 372 l 74 600 l 838 600 l 793 372 l 28 372 z "},".":{"ha":283,"x_min":28,"x_max":254,"o":"m 28 0 l 74 226 l 254 226 l 210 0 l 28 0 z "},"/":{"ha":601,"x_min":42,"x_max":560,"o":"m 42 -162 l 301 1135 l 560 1135 l 301 -162 l 42 -162 z "},":":{"ha":442,"x_min":56,"x_max":386,"o":"m 204 746 l 386 746 l 340 518 l 160 518 l 204 746 m 56 0 l 101 226 l 282 226 l 238 0 l 56 0 z "},";":{"ha":469,"x_min":56,"x_max":413,"o":"m 58 -124 l 128 226 l 310 226 l 150 -162 l 89 -162 q 65 -151 74 -162 q 58 -124 56 -139 m 413 746 l 368 518 l 186 518 l 232 746 l 413 746 z "},"<":{"ha":1028,"x_min":28,"x_max":1000,"o":"m 28 406 l 96 746 l 1000 972 l 949 713 l 297 550 l 857 260 l 806 0 l 28 406 z "},"=":{"ha":1022,"x_min":28,"x_max":993,"o":"m 164 826 l 993 826 l 949 600 l 118 600 l 164 826 m 28 146 l 74 372 l 903 372 l 857 146 l 28 146 z "},">":{"ha":1028,"x_min":28,"x_max":1000,"o":"m 28 0 l 79 260 l 731 422 l 171 713 l 222 972 l 1000 567 l 932 226 l 28 0 z "},"?":{"ha":1086,"x_min":56,"x_max":1061,"o":"m 346 557 q 378 583 350 583 l 724 583 l 747 707 q 741 734 750 722 q 717 746 732 746 l 400 746 q 380 738 389 746 q 368 719 371 731 l 360 681 l 56 681 l 108 946 q 120 965 111 957 q 140 972 129 972 l 894 972 q 966 956 933 972 q 1020 913 999 940 q 1051 851 1042 886 q 1054 778 1061 815 l 1001 519 q 946 425 990 461 q 843 389 901 389 l 603 389 l 571 226 l 279 226 l 346 557 m 525 0 l 233 0 l 267 163 l 558 163 l 525 0 z "},"@":{"ha":1215,"x_min":24,"x_max":1193,"o":"m 1183 851 q 1185 779 1193 817 l 1056 131 q 1037 78 1050 101 q 1000 37 1024 54 q 941 10 976 19 q 856 0 906 0 q 754 16 796 0 q 688 59 713 32 q 656 122 664 86 q 656 194 649 157 l 665 243 l 396 243 q 341 269 363 243 q 326 329 319 296 l 393 664 q 422 710 400 692 q 474 729 444 729 l 810 729 q 873 699 849 729 q 889 632 897 669 l 799 211 q 806 155 792 181 q 861 129 819 129 q 910 144 899 129 q 926 182 922 158 l 1046 765 q 1033 819 1053 796 q 982 843 1014 843 l 353 843 q 312 828 329 843 q 289 790 294 814 l 171 207 q 183 153 164 176 q 233 129 203 129 l 410 129 q 457 118 435 129 q 494 90 479 107 q 515 49 508 72 q 517 0 521 25 l 190 0 q 119 16 151 0 q 65 59 86 32 q 33 122 43 86 q 31 194 24 157 l 161 842 q 217 936 172 900 q 319 972 261 972 l 1026 972 q 1097 956 1064 972 q 1151 913 1129 940 q 1183 851 1174 886 m 485 363 q 497 357 490 357 l 658 357 q 678 364 669 357 q 690 382 688 371 l 736 596 q 733 610 739 604 q 721 615 728 615 l 543 615 q 526 603 532 615 l 482 376 q 485 363 479 368 z "},"A":{"ha":1219,"x_min":28,"x_max":1196,"o":"m 375 275 l 319 0 l 28 0 l 196 842 q 252 936 207 900 q 356 972 297 972 l 1029 972 q 1101 956 1068 972 q 1155 913 1133 940 q 1186 851 1176 886 q 1188 779 1196 817 l 1032 0 l 740 0 l 796 275 l 375 275 m 842 503 l 882 707 q 875 734 885 722 q 850 746 865 746 l 297 746 l 458 697 l 419 503 l 842 503 z "},"B":{"ha":1283,"x_min":28,"x_max":1260,"o":"m 1036 0 l 28 0 l 222 972 l 1093 972 q 1165 956 1132 972 q 1219 913 1197 940 q 1250 851 1240 886 q 1251 779 1260 817 l 1221 622 q 1176 548 1211 578 q 1093 518 1140 518 l 1114 518 q 1171 505 1144 518 q 1215 470 1197 492 q 1240 421 1232 449 q 1242 364 1247 393 l 1194 131 q 1139 36 1183 72 q 1036 0 1094 0 m 917 235 q 928 253 925 242 l 953 382 q 947 409 956 397 q 922 421 938 421 l 419 421 l 381 226 l 896 226 q 917 235 907 226 m 901 615 q 933 642 926 615 l 946 707 q 939 734 949 722 q 914 746 929 746 l 313 746 l 475 697 l 458 615 l 901 615 z "},"C":{"ha":1219,"x_min":24,"x_max":1197,"o":"m 265 746 l 428 697 l 342 265 q 349 238 339 250 q 374 226 358 226 l 754 226 q 786 253 779 226 l 800 324 l 1092 324 l 1053 131 q 997 36 1042 72 q 894 0 953 0 l 171 0 q 108 14 138 0 q 60 52 79 28 q 32 107 40 76 q 31 171 24 138 l 165 842 q 221 936 176 900 q 324 972 265 972 l 1031 972 q 1101 956 1068 972 q 1156 913 1133 940 q 1188 851 1178 886 q 1189 779 1197 817 l 1163 649 l 871 649 l 883 707 q 876 734 886 722 q 851 746 867 746 l 265 746 z "},"D":{"ha":1350,"x_min":28,"x_max":1325,"o":"m 924 0 l 28 0 l 222 972 l 1158 972 q 1230 956 1197 972 q 1284 913 1263 940 q 1315 851 1306 886 q 1318 779 1325 817 l 1208 235 q 1172 140 1199 183 q 1108 66 1146 97 q 1024 17 1071 35 q 924 0 976 0 m 921 253 l 1011 707 q 1005 734 1014 722 q 981 746 996 746 l 307 746 l 458 697 l 365 226 l 889 226 q 909 234 900 226 q 921 253 918 242 z "},"E":{"ha":1122,"x_min":24,"x_max":1094,"o":"m 261 746 l 424 697 l 403 592 l 922 592 l 881 381 l 360 381 l 338 265 q 344 238 335 250 q 369 226 354 226 l 944 226 l 900 0 l 190 0 q 119 16 151 0 q 65 59 86 32 q 33 122 43 86 q 31 194 24 157 l 186 972 l 1094 972 l 1049 746 l 261 746 z "},"F":{"ha":1158,"x_min":28,"x_max":1129,"o":"m 1085 746 l 297 746 l 458 697 l 439 600 l 958 600 l 913 372 l 394 372 l 319 0 l 28 0 l 222 972 l 1129 972 l 1085 746 z "},"G":{"ha":1256,"x_min":24,"x_max":1228,"o":"m 428 697 l 342 265 q 349 238 339 250 q 374 226 358 226 l 786 226 q 806 234 797 226 q 818 253 815 242 l 844 389 l 724 389 q 682 399 701 389 q 649 424 663 408 q 631 462 636 440 q 629 506 625 483 l 644 583 l 1175 583 l 1101 208 q 1068 124 1092 163 q 1011 58 1044 86 q 935 15 978 31 q 847 0 893 0 l 171 0 q 108 14 138 0 q 60 52 79 28 q 32 107 40 76 q 31 171 24 138 l 165 842 q 221 936 176 900 q 324 972 265 972 l 1228 972 l 1182 746 l 265 746 l 428 697 z "},"H":{"ha":1319,"x_min":28,"x_max":1292,"o":"m 881 372 l 222 372 l 385 324 l 319 0 l 28 0 l 222 972 l 514 972 l 439 600 l 925 600 l 1000 972 l 1292 972 l 1097 0 l 806 0 l 881 372 z "},"I":{"ha":542,"x_min":28,"x_max":514,"o":"m 28 0 l 222 972 l 514 972 l 468 746 l 297 746 l 458 697 l 319 0 l 28 0 z "},"J":{"ha":1108,"x_min":24,"x_max":1079,"o":"m 338 265 q 344 238 335 250 q 369 226 354 226 l 613 226 q 644 253 638 226 l 733 697 l 894 746 l 464 746 l 510 972 l 1079 972 l 911 131 q 856 36 900 72 q 753 0 811 0 l 190 0 q 119 16 151 0 q 65 59 86 32 q 33 122 43 86 q 31 194 24 157 l 67 372 l 358 372 l 338 265 z "},"K":{"ha":1288,"x_min":28,"x_max":1260,"o":"m 510 394 l 222 171 l 368 243 l 319 0 l 28 0 l 222 972 l 514 972 l 444 624 l 919 972 l 1260 972 l 735 568 l 1114 0 l 774 0 l 510 394 z "},"L":{"ha":1028,"x_min":28,"x_max":1000,"o":"m 28 0 l 222 972 l 546 972 l 407 275 l 235 226 l 1000 226 l 954 0 l 28 0 z "},"M":{"ha":1742,"x_min":28,"x_max":1713,"o":"m 943 0 l 668 0 l 490 778 l 318 778 l 479 729 l 328 0 l 28 0 l 222 972 l 749 972 l 854 372 l 1154 972 l 1713 972 l 1518 0 l 1219 0 l 1365 778 l 943 0 z "},"N":{"ha":1353,"x_min":28,"x_max":1324,"o":"m 1032 972 l 1324 972 l 1129 0 l 628 0 l 474 769 l 301 769 l 464 721 l 319 0 l 28 0 l 222 972 l 725 972 l 879 203 l 1032 972 z "},"O":{"ha":1217,"x_min":24,"x_max":1193,"o":"m 1026 972 q 1097 956 1064 972 q 1151 913 1129 940 q 1183 851 1174 886 q 1185 779 1193 817 l 1056 131 q 999 36 1044 72 q 896 0 954 0 l 190 0 q 119 16 151 0 q 65 59 86 32 q 33 122 43 86 q 31 194 24 157 l 161 842 q 217 936 172 900 q 319 972 261 972 l 1026 972 m 261 746 l 424 697 l 338 265 q 344 238 335 250 q 369 226 354 226 l 954 226 l 793 275 l 879 707 q 872 734 882 722 q 847 746 863 746 l 261 746 z "},"P":{"ha":1369,"x_min":28,"x_max":1346,"o":"m 1100 275 l 390 275 l 336 0 l 28 0 l 222 972 l 1199 972 q 1260 958 1232 972 q 1308 920 1289 944 q 1337 865 1328 896 q 1339 801 1346 835 l 1260 406 q 1203 312 1249 349 q 1100 275 1158 275 m 436 503 l 961 503 q 981 510 972 503 q 992 528 989 517 l 1028 707 q 1021 734 1031 722 q 996 746 1011 746 l 313 746 l 475 697 l 436 503 z "},"Q":{"ha":1219,"x_min":24,"x_max":1192,"o":"m 993 972 q 1065 956 1032 972 q 1119 913 1097 940 q 1150 851 1140 886 q 1153 779 1160 817 l 1042 226 l 1192 226 l 1146 0 l 186 0 q 117 17 149 0 q 63 60 85 33 q 33 122 42 88 q 31 194 24 157 l 161 842 q 217 936 172 900 q 319 972 261 972 l 993 972 m 424 697 l 338 265 q 344 238 335 250 q 369 226 354 226 l 724 226 q 744 234 735 226 q 756 253 753 242 l 847 707 q 840 734 850 722 q 815 746 831 746 l 261 746 l 424 697 z "},"R":{"ha":1350,"x_min":28,"x_max":1325,"o":"m 731 275 l 375 275 l 319 0 l 28 0 l 222 972 l 1158 972 q 1230 956 1197 972 q 1284 913 1263 940 q 1315 851 1306 886 q 1318 779 1325 817 l 1243 406 q 1188 312 1232 349 q 1085 275 1143 275 l 1022 275 l 1146 0 l 854 0 l 731 275 m 944 503 q 965 510 956 503 q 976 528 974 517 l 1011 707 q 1005 734 1014 722 q 981 746 996 746 l 297 746 l 458 697 l 419 503 l 944 503 z "},"S":{"ha":1178,"x_min":24,"x_max":1154,"o":"m 32 214 l 47 292 l 339 292 l 333 265 q 340 238 331 250 q 365 226 350 226 l 913 226 l 750 275 l 765 350 q 758 377 768 365 q 733 389 749 389 l 283 389 q 206 407 242 389 q 146 454 169 425 q 112 522 122 483 q 110 603 101 561 l 154 829 q 216 932 167 892 q 329 972 265 972 l 971 972 q 1049 954 1013 972 q 1108 907 1085 936 q 1143 840 1132 878 q 1146 760 1154 801 l 1129 681 l 838 681 l 843 707 q 836 734 846 722 q 811 746 826 746 l 258 746 l 419 697 l 408 639 q 415 612 406 624 q 440 600 425 600 l 808 600 q 876 600 850 600 l 903 599 q 976 577 943 596 q 1031 529 1008 558 q 1063 463 1053 500 q 1064 386 1072 426 l 1015 143 q 953 40 1003 81 q 840 0 904 0 l 206 0 q 128 18 164 0 q 68 65 92 36 q 34 133 44 94 q 32 214 24 172 z "},"T":{"ha":1093,"x_min":28,"x_max":1065,"o":"m 74 972 l 1065 972 l 1019 746 l 524 746 l 686 697 l 546 0 l 222 0 l 371 746 l 28 746 l 74 972 z "},"U":{"ha":1219,"x_min":24,"x_max":1192,"o":"m 864 0 l 190 0 q 119 16 151 0 q 65 59 86 32 q 33 122 43 86 q 31 194 24 157 l 186 972 l 478 972 l 339 275 l 176 226 l 724 226 q 744 234 735 226 q 756 253 753 242 l 900 972 l 1192 972 l 1024 131 q 967 36 1013 72 q 864 0 922 0 z "},"V":{"ha":1222,"x_min":28,"x_max":1194,"o":"m 1194 972 l 692 0 l 206 0 l 28 972 l 336 972 l 472 275 l 310 226 l 482 226 l 854 972 l 1194 972 z "},"W":{"ha":1742,"x_min":28,"x_max":1713,"o":"m 992 0 l 871 600 l 554 0 l 28 0 l 206 972 l 506 972 l 385 243 l 214 194 l 376 194 l 782 972 l 1057 972 l 1235 194 l 1414 972 l 1713 972 l 1503 0 l 992 0 z "},"X":{"ha":1288,"x_min":28,"x_max":1260,"o":"m 1178 0 l 822 0 l 640 272 l 400 0 l 28 0 l 438 464 l 643 464 l 481 513 l 174 972 l 531 972 l 683 742 l 886 972 l 1260 972 l 844 501 l 1178 0 z "},"Y":{"ha":1158,"x_min":28,"x_max":1129,"o":"m 1129 972 l 651 389 l 579 0 l 263 0 l 326 340 l 499 340 l 336 389 l 28 972 l 336 972 l 514 615 l 789 972 l 1129 972 z "},"Z":{"ha":1222,"x_min":28,"x_max":1194,"o":"m 922 746 l 125 746 l 171 972 l 1194 972 l 1194 746 l 531 275 l 300 226 l 1097 226 l 1051 0 l 28 0 l 28 226 l 692 697 l 922 746 z "},"[":{"ha":689,"x_min":22,"x_max":661,"o":"m 406 -162 l 93 -162 q 42 -139 61 -162 q 29 -85 22 -115 l 263 1082 q 285 1120 267 1106 q 326 1135 303 1135 l 661 1135 l 617 907 l 486 907 l 318 65 l 451 65 l 406 -162 z "},"\\":{"ha":603,"x_min":42,"x_max":560,"o":"m 42 1135 l 301 1135 l 560 -162 l 301 -162 l 42 1135 z "},"]":{"ha":689,"x_min":28,"x_max":667,"o":"m 428 -110 q 405 -148 422 -133 q 364 -162 388 -162 l 28 -162 l 74 65 l 203 65 l 371 907 l 239 907 l 283 1135 l 597 1135 q 647 1111 628 1135 q 661 1057 667 1088 l 428 -110 z "},"^":{"ha":963,"x_min":28,"x_max":935,"o":"m 28 324 l 385 972 l 806 972 l 935 324 l 640 324 l 563 746 l 346 324 l 28 324 z "},"_":{"ha":1093,"x_min":28,"x_max":1065,"o":"m 28 -226 l 74 0 l 1065 0 l 1019 -226 l 28 -226 z "},"`":{"ha":282,"x_min":28,"x_max":254,"o":"m 28 1232 l 215 1232 l 254 1038 l 125 1038 l 28 1232 z "},"a":{"ha":1219,"x_min":28,"x_max":1196,"o":"m 796 275 l 375 275 l 319 0 l 28 0 l 196 842 q 252 936 207 900 q 356 972 297 972 l 1029 972 q 1101 956 1068 972 q 1155 913 1133 940 q 1186 851 1176 886 q 1188 779 1196 817 l 1032 0 l 740 0 l 796 275 m 419 503 l 842 503 l 882 707 q 875 734 885 722 q 850 746 865 746 l 496 746 q 464 719 468 746 l 419 503 z "},"b":{"ha":1283,"x_min":28,"x_max":1260,"o":"m 1036 0 l 28 0 l 222 972 l 1093 972 q 1165 956 1132 972 q 1219 913 1197 940 q 1250 851 1240 886 q 1251 779 1260 817 l 1221 622 q 1176 548 1211 578 q 1093 518 1140 518 l 1114 518 q 1171 505 1144 518 q 1215 470 1197 492 q 1240 421 1232 449 q 1242 364 1247 393 l 1194 131 q 1139 36 1183 72 q 1036 0 1094 0 m 917 235 q 928 253 925 242 l 953 382 q 947 409 956 397 q 922 421 938 421 l 419 421 l 381 226 l 896 226 q 917 235 907 226 m 485 746 l 458 615 l 901 615 q 933 642 926 615 l 946 707 q 939 734 949 722 q 914 746 929 746 l 485 746 z "},"c":{"ha":1219,"x_min":24,"x_max":1197,"o":"m 1031 972 q 1101 956 1068 972 q 1156 913 1133 940 q 1188 851 1178 886 q 1189 779 1197 817 l 1163 649 l 871 649 l 883 707 q 876 734 886 722 q 851 746 867 746 l 464 746 q 444 738 453 746 q 432 719 435 731 l 342 265 q 349 238 339 250 q 374 226 358 226 l 754 226 q 786 253 779 226 l 800 324 l 1092 324 l 1053 131 q 997 36 1042 72 q 894 0 953 0 l 171 0 q 108 14 138 0 q 60 52 79 28 q 32 107 40 76 q 31 171 24 138 l 165 842 q 221 936 176 900 q 324 972 265 972 l 1031 972 z "},"d":{"ha":1350,"x_min":28,"x_max":1325,"o":"m 924 0 l 28 0 l 222 972 l 1158 972 q 1230 956 1197 972 q 1284 913 1263 940 q 1315 851 1306 886 q 1318 779 1325 817 l 1208 235 q 1172 140 1199 183 q 1108 66 1146 97 q 1024 17 1071 35 q 924 0 976 0 m 1011 707 q 1005 734 1014 722 q 981 746 996 746 l 468 746 l 365 226 l 889 226 q 909 234 900 226 q 921 253 918 242 l 1011 707 z "},"e":{"ha":1158,"x_min":28,"x_max":1129,"o":"m 913 372 l 394 372 l 365 226 l 981 226 l 935 0 l 28 0 l 222 972 l 1129 972 l 1085 746 l 468 746 l 439 600 l 958 600 l 913 372 z "},"f":{"ha":1158,"x_min":28,"x_max":1129,"o":"m 913 372 l 394 372 l 319 0 l 28 0 l 222 972 l 1129 972 l 1085 746 l 468 746 l 439 600 l 958 600 l 913 372 z "},"g":{"ha":1256,"x_min":24,"x_max":1228,"o":"m 1228 972 l 1182 746 l 464 746 q 444 738 453 746 q 432 719 435 731 l 342 265 q 349 238 339 250 q 374 226 358 226 l 786 226 q 806 234 797 226 q 818 253 815 242 l 844 389 l 724 389 q 682 399 701 389 q 649 424 663 408 q 631 462 636 440 q 629 506 625 483 l 644 583 l 1175 583 l 1101 208 q 1068 124 1092 163 q 1011 58 1044 86 q 935 15 978 31 q 847 0 893 0 l 171 0 q 108 14 138 0 q 60 52 79 28 q 32 107 40 76 q 31 171 24 138 l 165 842 q 221 936 176 900 q 324 972 265 972 l 1228 972 z "},"h":{"ha":1319,"x_min":28,"x_max":1292,"o":"m 1000 972 l 1292 972 l 1097 0 l 806 0 l 881 372 l 394 372 l 319 0 l 28 0 l 222 972 l 514 972 l 439 600 l 925 600 l 1000 972 z "},"i":{"ha":542,"x_min":28,"x_max":514,"o":"m 28 0 l 222 972 l 514 972 l 319 0 l 28 0 z "},"j":{"ha":1108,"x_min":24,"x_max":1079,"o":"m 338 265 q 344 238 335 250 q 369 226 354 226 l 613 226 q 644 253 638 226 l 743 746 l 464 746 l 510 972 l 1079 972 l 911 131 q 856 36 900 72 q 753 0 811 0 l 190 0 q 119 16 151 0 q 65 59 86 32 q 33 122 43 86 q 31 194 24 157 l 67 372 l 358 372 l 338 265 z "},"k":{"ha":1288,"x_min":28,"x_max":1260,"o":"m 735 568 l 1114 0 l 774 0 l 510 394 l 378 293 l 319 0 l 28 0 l 222 972 l 514 972 l 444 624 l 919 972 l 1260 972 l 735 568 z "},"l":{"ha":1028,"x_min":28,"x_max":1000,"o":"m 222 972 l 546 972 l 397 226 l 1000 226 l 954 0 l 28 0 l 222 972 z "},"m":{"ha":1742,"x_min":28,"x_max":1713,"o":"m 943 0 l 668 0 l 490 778 l 328 0 l 28 0 l 222 972 l 749 972 l 854 372 l 1154 972 l 1713 972 l 1518 0 l 1219 0 l 1365 778 l 943 0 z "},"n":{"ha":1353,"x_min":28,"x_max":1324,"o":"m 1324 972 l 1129 0 l 628 0 l 474 769 l 319 0 l 28 0 l 222 972 l 725 972 l 879 203 l 1032 972 l 1324 972 z "},"o":{"ha":1217,"x_min":24,"x_max":1193,"o":"m 1026 972 q 1097 956 1064 972 q 1151 913 1129 940 q 1183 851 1174 886 q 1185 779 1193 817 l 1056 131 q 999 36 1044 72 q 896 0 954 0 l 190 0 q 119 16 151 0 q 65 59 86 32 q 33 122 43 86 q 31 194 24 157 l 161 842 q 217 936 172 900 q 319 972 261 972 l 1026 972 m 344 239 q 369 226 354 226 l 757 226 q 789 253 782 226 l 879 707 q 872 734 882 722 q 847 746 863 746 l 460 746 q 440 738 449 746 q 428 719 431 731 l 338 265 q 344 239 335 250 z "},"p":{"ha":1369,"x_min":28,"x_max":1346,"o":"m 1100 275 l 390 275 l 336 0 l 28 0 l 222 972 l 1199 972 q 1260 958 1232 972 q 1308 920 1289 944 q 1337 865 1328 896 q 1339 801 1346 835 l 1260 406 q 1203 312 1249 349 q 1100 275 1158 275 m 981 510 q 992 528 989 517 l 1028 707 q 1021 734 1031 722 q 996 746 1011 746 l 485 746 l 436 503 l 961 503 q 981 510 972 503 z "},"q":{"ha":1219,"x_min":24,"x_max":1192,"o":"m 993 972 q 1065 956 1032 972 q 1119 913 1097 940 q 1150 851 1140 886 q 1153 779 1160 817 l 1042 226 l 1192 226 l 1146 0 l 186 0 q 117 17 149 0 q 63 60 85 33 q 33 122 42 88 q 31 194 24 157 l 161 842 q 217 936 172 900 q 319 972 261 972 l 993 972 m 344 239 q 369 226 354 226 l 724 226 q 744 234 735 226 q 756 253 753 242 l 847 707 q 840 734 850 722 q 815 746 831 746 l 460 746 q 440 738 449 746 q 428 719 431 731 l 338 265 q 344 239 335 250 z "},"r":{"ha":1350,"x_min":28,"x_max":1325,"o":"m 731 275 l 375 275 l 319 0 l 28 0 l 222 972 l 1158 972 q 1230 956 1197 972 q 1284 913 1263 940 q 1315 851 1306 886 q 1318 779 1325 817 l 1243 406 q 1188 312 1232 349 q 1085 275 1143 275 l 1022 275 l 1146 0 l 854 0 l 731 275 m 965 510 q 976 528 974 517 l 1011 707 q 1005 734 1014 722 q 981 746 996 746 l 468 746 l 419 503 l 944 503 q 965 510 956 503 z "},"s":{"ha":1178,"x_min":24,"x_max":1154,"o":"m 32 214 l 47 292 l 339 292 l 333 265 q 340 238 331 250 q 365 226 350 226 l 714 226 q 734 234 725 226 q 746 253 743 242 l 765 350 q 758 377 768 365 q 733 389 749 389 l 283 389 q 206 407 242 389 q 146 454 169 425 q 112 522 122 483 q 110 603 101 561 l 154 829 q 216 932 167 892 q 329 972 265 972 l 971 972 q 1049 954 1013 972 q 1108 907 1085 936 q 1143 840 1132 878 q 1146 760 1154 801 l 1129 681 l 838 681 l 843 707 q 836 734 846 722 q 811 746 826 746 l 456 746 q 424 719 431 746 l 408 639 q 415 612 406 624 q 440 600 425 600 l 808 600 q 876 600 850 600 l 903 599 q 976 577 943 596 q 1031 529 1008 558 q 1063 463 1053 500 q 1064 386 1072 426 l 1015 143 q 953 40 1003 81 q 840 0 904 0 l 206 0 q 128 18 164 0 q 68 65 92 36 q 34 133 44 94 q 32 214 24 172 z "},"t":{"ha":1093,"x_min":28,"x_max":1065,"o":"m 28 746 l 74 972 l 1065 972 l 1019 746 l 696 746 l 546 0 l 222 0 l 371 746 l 28 746 z "},"u":{"ha":1219,"x_min":24,"x_max":1192,"o":"m 338 265 q 344 238 335 250 q 369 226 354 226 l 724 226 q 744 234 735 226 q 756 253 753 242 l 900 972 l 1192 972 l 1024 131 q 967 36 1013 72 q 864 0 922 0 l 190 0 q 119 16 151 0 q 65 59 86 32 q 33 122 43 86 q 31 194 24 157 l 186 972 l 478 972 l 338 265 z "},"v":{"ha":1222,"x_min":28,"x_max":1194,"o":"m 336 972 l 482 226 l 854 972 l 1194 972 l 692 0 l 206 0 l 28 972 l 336 972 z "},"w":{"ha":1742,"x_min":28,"x_max":1713,"o":"m 992 0 l 871 600 l 554 0 l 28 0 l 206 972 l 506 972 l 376 194 l 782 972 l 1057 972 l 1235 194 l 1414 972 l 1713 972 l 1503 0 l 992 0 z "},"x":{"ha":1288,"x_min":28,"x_max":1260,"o":"m 844 501 l 1178 0 l 822 0 l 640 272 l 400 0 l 28 0 l 481 513 l 174 972 l 531 972 l 683 742 l 886 972 l 1260 972 l 844 501 z "},"y":{"ha":1158,"x_min":28,"x_max":1129,"o":"m 1129 972 l 651 389 l 579 0 l 263 0 l 336 389 l 28 972 l 336 972 l 514 615 l 789 972 l 1129 972 z "},"z":{"ha":1222,"x_min":28,"x_max":1194,"o":"m 1051 0 l 28 0 l 28 226 l 761 746 l 125 746 l 171 972 l 1194 972 l 1194 746 l 463 226 l 1097 226 l 1051 0 z "},"{":{"ha":738,"x_min":26,"x_max":710,"o":"m 214 599 l 311 1082 q 333 1120 315 1106 q 374 1135 350 1135 l 710 1135 l 664 907 l 535 907 l 469 583 l 361 486 l 431 389 l 367 65 l 499 65 l 454 -162 l 140 -162 q 90 -139 110 -162 q 78 -85 71 -115 l 169 375 l 61 389 q 36 400 46 389 q 29 426 26 411 l 51 557 q 63 576 54 568 q 83 583 72 583 l 214 599 z "},"|":{"ha":371,"x_min":56,"x_max":315,"o":"m 56 -162 l 56 1135 l 315 1135 l 315 -162 l 56 -162 z "},"}":{"ha":738,"x_min":28,"x_max":711,"o":"m 307 583 l 371 907 l 239 907 l 283 1135 l 597 1135 q 647 1111 628 1135 q 661 1057 667 1088 l 568 597 l 676 583 q 701 572 692 583 q 708 546 711 561 l 686 417 q 654 389 682 389 l 524 374 l 428 -110 q 405 -148 422 -133 q 364 -162 388 -162 l 28 -162 l 74 65 l 203 65 l 268 389 l 376 486 l 307 583 z "},"~":{"ha":833,"x_min":28,"x_max":806,"o":"m 806 583 l 663 324 l 368 324 l 319 503 l 254 389 l 28 389 l 171 649 l 465 649 l 514 469 l 579 583 l 806 583 z "}," ":{"ha":661,"x_min":0,"x_max":0,"o":""},"¡":{"ha":597,"x_min":56,"x_max":542,"o":"m 56 -518 l 204 226 l 496 226 l 347 -518 l 56 -518 m 218 292 l 250 454 l 542 454 l 510 292 l 218 292 z "},"¢":{"ha":1188,"x_min":24,"x_max":1164,"o":"m 31 171 l 165 842 q 221 936 176 900 q 324 972 265 972 l 601 972 l 635 1135 l 813 1135 l 781 972 l 997 972 q 1069 956 1036 972 q 1123 913 1101 940 q 1154 851 1144 886 q 1157 779 1164 817 l 1131 649 l 839 649 l 851 707 q 844 734 854 722 q 819 746 835 746 l 735 746 l 631 226 l 721 226 q 753 253 749 226 l 768 324 l 1060 324 l 1021 131 q 965 36 1010 72 q 861 0 919 0 l 586 0 l 553 -162 l 375 -162 l 407 0 l 171 0 q 108 14 138 0 q 60 52 79 28 q 32 107 40 76 q 31 171 24 138 m 349 239 q 374 226 358 226 l 453 226 l 557 746 l 464 746 q 444 738 453 746 q 432 719 435 731 l 342 265 q 349 239 339 250 z "},"£":{"ha":1221,"x_min":28,"x_max":1197,"o":"m 142 14 q 93 52 113 28 q 65 107 74 76 q 64 171 57 138 l 108 389 l 28 389 l 60 551 l 140 551 l 199 842 q 254 936 210 900 q 357 972 299 972 l 1032 972 q 1102 956 1069 972 q 1156 913 1135 940 q 1188 851 1178 886 q 1190 779 1197 817 l 1164 649 l 872 649 l 885 707 q 878 734 888 722 q 853 746 868 746 l 497 746 q 477 738 486 746 q 465 719 468 731 l 432 551 l 838 551 l 806 389 l 400 389 l 375 265 q 382 238 372 250 q 407 226 392 226 l 1074 226 l 1054 131 q 998 36 1043 72 q 894 0 953 0 l 204 0 q 142 14 171 0 z "},"¤":{"ha":1028,"x_min":28,"x_max":1000,"o":"m 67 600 l 249 600 l 257 644 q 280 683 263 668 q 321 697 297 697 l 432 697 l 474 907 l 700 907 l 658 697 l 758 697 q 810 674 790 697 q 822 619 829 650 l 818 600 l 1000 600 l 961 406 l 779 406 l 771 360 q 749 322 767 336 q 707 308 731 308 l 581 308 l 539 97 l 311 97 l 354 308 l 269 308 q 218 332 238 308 q 206 386 199 356 l 210 406 l 28 406 l 67 600 m 397 465 q 422 454 407 454 l 600 454 q 620 462 611 454 q 632 481 629 469 l 638 514 q 631 540 640 529 q 606 551 621 551 l 428 551 q 408 543 417 551 q 396 524 399 535 l 390 492 q 397 465 388 476 z "},"¥":{"ha":1190,"x_min":28,"x_max":1163,"o":"m 329 178 l 28 178 l 60 340 l 358 340 l 368 389 l 44 389 l 76 551 l 282 551 l 60 972 l 368 972 l 546 615 l 822 972 l 1163 972 l 817 551 l 1065 551 l 1032 389 l 685 389 l 675 340 l 1049 340 l 1017 178 l 644 178 l 611 0 l 296 0 l 329 178 z "},"§":{"ha":1514,"x_min":24,"x_max":1492,"o":"m 1149 924 l 793 924 q 761 897 768 924 l 746 817 q 749 794 744 804 q 778 778 758 778 l 1240 778 q 1313 756 1281 775 q 1368 708 1346 738 q 1400 642 1390 679 q 1401 565 1410 606 l 1353 322 q 1291 219 1340 260 q 1178 178 1242 178 l 1058 178 l 1015 -35 q 953 -137 1003 -97 q 840 -178 904 -178 l 206 -178 q 128 -160 164 -178 q 68 -112 92 -142 q 34 -45 44 -83 q 32 35 24 -7 l 47 114 l 339 114 l 333 88 q 340 60 331 72 q 365 49 350 49 l 714 49 q 734 56 725 49 q 746 75 743 64 l 765 172 q 758 199 765 188 q 733 211 750 211 l 283 211 q 206 229 242 211 q 146 276 169 247 q 112 344 122 306 q 110 424 101 382 l 154 651 q 216 754 167 714 q 329 794 265 794 l 450 794 l 492 1007 q 553 1110 504 1069 q 667 1150 603 1150 l 1308 1150 q 1386 1132 1350 1150 q 1446 1085 1422 1114 q 1481 1017 1469 1056 q 1483 938 1492 979 l 1467 858 l 1175 858 l 1181 885 q 1174 912 1183 900 q 1149 924 1164 924 m 415 433 q 440 421 425 421 l 903 421 q 964 406 933 419 l 1051 406 q 1072 413 1063 406 q 1083 431 1081 419 l 1103 528 q 1096 555 1106 543 q 1071 567 1086 567 l 456 567 q 424 542 431 567 l 408 460 q 415 433 406 444 z "},"¨":{"ha":542,"x_min":28,"x_max":514,"o":"m 336 1199 l 514 1199 l 482 1038 l 303 1038 l 336 1199 m 28 1038 l 60 1199 l 239 1199 l 206 1038 l 28 1038 z "},"©":{"ha":1215,"x_min":24,"x_max":1193,"o":"m 31 194 l 161 842 q 217 936 172 900 q 319 972 261 972 l 1026 972 q 1097 956 1064 972 q 1151 913 1129 940 q 1183 851 1174 886 q 1185 779 1193 817 l 1056 131 q 999 36 1044 72 q 896 0 954 0 l 190 0 q 119 16 151 0 q 65 59 86 32 q 33 122 43 86 q 31 194 24 157 m 183 153 q 233 129 203 129 l 863 129 q 904 144 886 129 q 926 182 922 158 l 1046 765 q 1033 819 1053 796 q 982 843 1014 843 l 353 843 q 312 828 329 843 q 289 790 294 814 l 171 207 q 183 153 164 176 m 326 329 l 393 664 q 422 710 400 692 q 474 729 444 729 l 810 729 q 873 699 849 729 q 889 632 897 669 l 876 567 l 731 567 l 736 596 q 733 610 739 604 q 721 615 728 615 l 543 615 q 526 603 532 615 l 482 376 q 485 363 479 368 q 497 357 490 357 l 672 357 q 688 369 685 357 l 694 406 l 840 406 l 821 308 q 793 262 815 281 q 742 243 771 243 l 396 243 q 341 269 363 243 q 326 329 319 296 z "},"«":{"ha":1288,"x_min":28,"x_max":1260,"o":"m 89 729 l 676 892 l 624 632 l 264 543 l 565 340 l 514 81 l 28 421 l 89 729 m 847 511 l 1149 308 l 1097 49 l 611 389 l 672 697 l 1260 858 l 1207 600 l 847 511 z "},"­":{"ha":0,"x_min":0,"x_max":0,"o":""},"®":{"ha":1215,"x_min":24,"x_max":1193,"o":"m 31 194 l 161 842 q 217 936 172 900 q 319 972 261 972 l 1026 972 q 1097 956 1064 972 q 1151 913 1129 940 q 1183 851 1174 886 q 1185 779 1193 817 l 1056 131 q 999 36 1044 72 q 896 0 954 0 l 190 0 q 119 16 151 0 q 65 59 86 32 q 33 122 43 86 q 31 194 24 157 m 183 153 q 233 129 203 129 l 863 129 q 904 144 886 129 q 926 182 922 158 l 1046 765 q 1033 819 1053 796 q 982 843 1014 843 l 353 843 q 312 828 329 843 q 289 790 294 814 l 171 207 q 183 153 164 176 m 378 729 l 846 729 q 908 699 885 729 q 925 632 932 669 l 888 446 q 860 399 882 418 q 808 381 838 381 l 776 381 l 839 243 l 693 243 l 631 381 l 453 381 l 426 243 l 281 243 l 378 729 m 738 494 q 754 507 751 494 l 772 596 q 756 615 775 615 l 500 615 l 476 494 l 738 494 z "},"°":{"ha":368,"x_min":25,"x_max":343,"o":"m 286 778 l 60 778 q 35 789 44 778 q 28 815 25 800 l 50 946 q 62 965 53 957 q 82 972 71 972 l 308 972 q 333 961 324 972 q 340 935 343 950 l 318 806 q 306 785 315 793 q 286 778 297 778 m 133 861 q 149 843 131 843 l 214 843 q 229 856 226 843 l 235 889 q 219 907 238 907 l 154 907 q 139 894 142 907 l 133 861 z "},"±":{"ha":1028,"x_min":28,"x_max":1000,"o":"m 679 599 l 1000 599 l 954 372 l 633 372 l 571 56 l 318 56 l 381 372 l 76 372 l 122 599 l 426 599 l 490 915 l 743 915 l 679 599 m 825 -251 l 28 -251 l 74 -25 l 871 -25 l 825 -251 z "},"²":{"ha":463,"x_min":56,"x_max":413,"o":"m 378 693 l 361 608 l 56 608 l 90 779 q 115 822 94 806 q 161 839 135 839 l 285 839 l 290 871 q 288 883 292 878 q 278 888 285 888 l 107 888 l 124 972 l 346 972 q 394 950 375 972 q 406 900 413 928 l 378 765 l 207 765 q 194 756 197 765 l 182 693 l 378 693 z "},"³":{"ha":457,"x_min":56,"x_max":406,"o":"m 268 839 q 279 849 276 839 l 285 872 q 272 888 288 888 l 99 888 l 115 972 l 340 972 q 387 950 368 972 q 399 900 406 928 l 388 842 q 371 813 385 824 q 340 803 357 803 l 347 803 q 385 785 371 803 q 396 744 400 767 l 378 657 q 357 622 374 635 q 318 608 340 608 l 56 608 l 72 693 l 265 693 q 278 703 275 693 l 288 751 q 275 765 290 765 l 106 765 l 119 839 l 268 839 z "},"´":{"ha":282,"x_min":28,"x_max":254,"o":"m 28 1038 l 67 1232 l 254 1232 l 157 1038 l 28 1038 z "},"µ":{"ha":1297,"x_min":28,"x_max":1269,"o":"m 835 389 q 865 415 861 389 l 978 972 l 1269 972 l 1075 0 l 783 0 l 833 243 q 794 203 819 221 q 740 175 774 188 q 656 163 706 163 l 394 163 l 319 -211 l 28 -211 l 264 972 l 556 972 l 447 428 q 454 401 444 413 q 479 389 464 389 l 835 389 z "},"¶":{"ha":1317,"x_min":24,"x_max":1289,"o":"m 1289 972 l 1243 746 l 1071 746 l 890 -162 l 631 -162 l 813 746 l 747 746 l 565 -162 l 307 -162 l 426 438 l 190 438 q 119 453 151 438 q 65 497 86 469 q 33 559 43 524 q 31 632 24 594 l 74 842 q 129 936 85 900 q 232 972 174 972 l 1289 972 z "},"·":{"ha":507,"x_min":65,"x_max":440,"o":"m 360 365 l 118 365 q 80 383 94 365 q 71 422 65 400 l 100 568 q 116 597 103 586 q 147 608 129 608 l 389 608 q 426 590 413 608 q 436 550 440 572 l 407 404 q 390 376 404 386 q 360 365 376 365 m 221 476 q 233 463 218 463 l 282 463 q 293 472 293 463 l 297 496 q 286 511 300 511 l 238 511 q 225 500 228 511 l 221 476 z "},"¸":{"ha":267,"x_min":28,"x_max":242,"o":"m 124 -268 l 28 -292 l 44 -158 l 93 -146 q 117 -112 117 -136 q 96 -78 117 -89 l 50 -49 l 58 33 l 188 33 l 183 0 q 227 -53 213 -24 q 238 -136 242 -82 q 208 -222 233 -194 q 124 -268 182 -249 z "},"¹":{"ha":282,"x_min":56,"x_max":231,"o":"m 72 972 l 165 972 q 212 950 193 972 q 225 900 231 928 l 167 608 l 57 608 l 113 888 l 56 888 l 72 972 z "},"»":{"ha":1288,"x_min":28,"x_max":1260,"o":"m 79 340 l 439 429 l 138 632 l 190 892 l 676 551 l 614 243 l 28 81 l 79 340 m 774 858 l 1260 518 l 1197 211 l 611 49 l 663 308 l 1022 397 l 721 600 l 774 858 z "},"¿":{"ha":1086,"x_min":24,"x_max":1029,"o":"m 482 65 l 514 226 l 806 226 l 740 -104 q 708 -129 733 -129 l 361 -129 l 338 -253 q 344 -280 335 -268 q 369 -292 354 -292 l 685 -292 q 705 -284 696 -292 q 717 -265 714 -276 l 725 -226 l 1029 -226 l 976 -493 q 965 -511 974 -504 q 944 -518 956 -518 l 190 -518 q 119 -502 151 -518 q 65 -459 86 -486 q 33 -397 43 -432 q 31 -325 24 -362 l 83 -65 q 139 28 94 -8 q 242 65 183 65 l 482 65 m 560 454 l 851 454 l 818 292 l 526 292 l 560 454 z "},"À":{"ha":1219,"x_min":28,"x_max":1196,"o":"m 375 275 l 319 0 l 28 0 l 196 842 q 252 936 207 900 q 356 972 297 972 l 1029 972 q 1101 956 1068 972 q 1155 913 1133 940 q 1186 851 1176 886 q 1188 779 1196 817 l 1032 0 l 740 0 l 796 275 l 375 275 m 842 503 l 882 707 q 875 734 885 722 q 850 746 865 746 l 297 746 l 458 697 l 419 503 l 842 503 m 578 1232 l 765 1232 l 804 1038 l 675 1038 l 578 1232 z "},"Á":{"ha":1219,"x_min":28,"x_max":1196,"o":"m 375 275 l 319 0 l 28 0 l 196 842 q 252 936 207 900 q 356 972 297 972 l 1029 972 q 1101 956 1068 972 q 1155 913 1133 940 q 1186 851 1176 886 q 1188 779 1196 817 l 1032 0 l 740 0 l 796 275 l 375 275 m 419 503 l 842 503 l 882 707 q 875 734 885 722 q 850 746 865 746 l 297 746 l 458 697 l 419 503 m 658 1038 l 697 1232 l 885 1232 l 788 1038 l 658 1038 z "},"Â":{"ha":1219,"x_min":28,"x_max":1196,"o":"m 375 275 l 319 0 l 28 0 l 196 842 q 252 936 207 900 q 356 972 297 972 l 1029 972 q 1101 956 1068 972 q 1155 913 1133 940 q 1186 851 1176 886 q 1188 779 1196 817 l 1032 0 l 740 0 l 796 275 l 375 275 m 842 503 l 882 707 q 875 734 885 722 q 850 746 865 746 l 297 746 l 458 697 l 419 503 l 842 503 m 658 1232 l 853 1232 l 918 1038 l 772 1038 l 743 1154 l 675 1038 l 529 1038 l 658 1232 z "},"Ã":{"ha":1219,"x_min":28,"x_max":1196,"o":"m 196 842 q 252 936 207 900 q 356 972 297 972 l 1029 972 q 1101 956 1068 972 q 1155 913 1133 940 q 1186 851 1176 886 q 1188 779 1196 817 l 1032 0 l 740 0 l 796 275 l 375 275 l 319 0 l 28 0 l 196 842 m 458 697 l 419 503 l 842 503 l 882 707 q 875 734 885 722 q 850 746 865 746 l 297 746 l 458 697 m 522 1088 q 531 1113 522 1100 q 551 1143 542 1128 l 571 1174 q 619 1217 590 1201 q 679 1232 647 1232 q 757 1206 722 1232 q 807 1140 792 1181 l 807 1139 l 869 1232 l 914 1232 q 939 1225 928 1232 q 956 1207 950 1218 q 963 1183 963 1196 q 956 1158 963 1171 l 922 1101 q 876 1054 906 1071 q 811 1038 846 1038 l 779 1038 q 713 1060 742 1038 q 674 1119 683 1083 l 626 1038 l 571 1038 q 545 1044 557 1038 q 528 1063 533 1051 q 522 1088 522 1074 z "},"Ä":{"ha":1219,"x_min":28,"x_max":1196,"o":"m 375 275 l 319 0 l 28 0 l 196 842 q 252 936 207 900 q 356 972 297 972 l 1029 972 q 1101 956 1068 972 q 1155 913 1133 940 q 1186 851 1176 886 q 1188 779 1196 817 l 1032 0 l 740 0 l 796 275 l 375 275 m 842 503 l 882 707 q 875 734 885 722 q 850 746 865 746 l 297 746 l 458 697 l 419 503 l 842 503 m 821 1199 l 999 1199 l 967 1038 l 788 1038 l 821 1199 m 513 1038 l 544 1199 l 724 1199 l 690 1038 l 513 1038 z "},"Å":{"ha":1219,"x_min":28,"x_max":1196,"o":"m 28 0 l 196 842 q 252 936 207 900 q 356 972 297 972 l 1029 972 q 1101 956 1068 972 q 1155 913 1133 940 q 1186 851 1176 886 q 1188 779 1196 817 l 1032 0 l 740 0 l 796 275 l 375 275 l 319 0 l 28 0 m 458 697 l 419 503 l 842 503 l 882 707 q 875 734 885 722 q 850 746 865 746 l 297 746 l 458 697 m 567 1075 l 589 1204 q 601 1224 592 1215 q 621 1232 610 1232 l 847 1232 q 872 1221 863 1232 q 879 1194 882 1210 l 857 1064 q 825 1038 853 1038 l 599 1038 q 574 1049 583 1038 q 567 1075 564 1060 m 676 1108 q 688 1101 681 1101 l 753 1101 q 768 1115 765 1101 l 774 1147 q 758 1167 776 1167 l 693 1167 q 678 1153 681 1167 l 672 1121 q 676 1108 671 1114 z "},"Æ":{"ha":1871,"x_min":28,"x_max":1843,"o":"m 375 275 l 319 0 l 28 0 l 196 842 q 252 936 207 900 q 356 972 297 972 l 1843 972 l 1797 746 l 1010 746 l 1172 697 l 1151 592 l 1671 592 l 1629 381 l 1108 381 l 1086 265 q 1093 238 1083 250 q 1118 226 1103 226 l 1693 226 l 1649 0 l 939 0 q 867 16 900 0 q 813 59 835 32 q 782 122 792 86 q 779 194 772 157 l 796 275 l 375 275 m 842 503 l 890 746 l 297 746 l 458 697 l 419 503 l 842 503 z "},"Ç":{"ha":1188,"x_min":24,"x_max":1164,"o":"m 31 171 l 165 842 q 221 936 176 900 q 324 972 265 972 l 997 972 q 1069 956 1036 972 q 1123 913 1101 940 q 1154 851 1144 886 q 1157 779 1164 817 l 1131 649 l 839 649 l 851 707 q 844 734 854 722 q 819 746 835 746 l 265 746 l 428 697 l 342 265 q 349 238 339 250 q 374 226 358 226 l 721 226 q 753 253 749 226 l 768 324 l 1060 324 l 1021 131 q 965 36 1010 72 q 861 0 919 0 l 590 0 q 635 -53 619 -24 q 644 -136 650 -82 q 613 -223 640 -194 q 531 -268 585 -251 l 436 -292 l 453 -158 l 501 -146 q 524 -114 524 -136 q 503 -81 524 -92 l 457 -49 l 463 0 l 171 0 q 108 14 138 0 q 60 52 79 28 q 32 107 40 76 q 31 171 24 138 z "},"È":{"ha":1122,"x_min":24,"x_max":1094,"o":"m 424 697 l 403 592 l 922 592 l 881 381 l 360 381 l 338 265 q 344 238 335 250 q 369 226 354 226 l 944 226 l 900 0 l 190 0 q 119 16 151 0 q 65 59 86 32 q 33 122 43 86 q 31 194 24 157 l 186 972 l 1094 972 l 1049 746 l 261 746 l 424 697 m 521 1232 l 708 1232 l 747 1038 l 618 1038 l 521 1232 z "},"É":{"ha":1122,"x_min":24,"x_max":1094,"o":"m 424 697 l 403 592 l 922 592 l 881 381 l 360 381 l 338 265 q 344 238 335 250 q 369 226 354 226 l 944 226 l 900 0 l 190 0 q 119 16 151 0 q 65 59 86 32 q 33 122 43 86 q 31 194 24 157 l 186 972 l 1094 972 l 1049 746 l 261 746 l 424 697 m 624 1232 l 813 1232 l 715 1038 l 585 1038 l 624 1232 z "},"Ê":{"ha":1122,"x_min":24,"x_max":1094,"o":"m 261 746 l 424 697 l 403 592 l 922 592 l 881 381 l 360 381 l 338 265 q 344 238 335 250 q 369 226 354 226 l 944 226 l 900 0 l 190 0 q 119 16 151 0 q 65 59 86 32 q 33 122 43 86 q 31 194 24 157 l 186 972 l 1094 972 l 1049 746 l 261 746 m 472 1038 l 601 1232 l 796 1232 l 861 1038 l 715 1038 l 686 1154 l 618 1038 l 472 1038 z "},"Ë":{"ha":1122,"x_min":24,"x_max":1094,"o":"m 424 697 l 403 592 l 922 592 l 881 381 l 360 381 l 338 265 q 344 238 335 250 q 369 226 354 226 l 944 226 l 900 0 l 190 0 q 119 16 151 0 q 65 59 86 32 q 33 122 43 86 q 31 194 24 157 l 186 972 l 1094 972 l 1049 746 l 261 746 l 424 697 m 472 1199 l 650 1199 l 618 1038 l 439 1038 l 472 1199 m 715 1038 l 747 1199 l 925 1199 l 893 1038 l 715 1038 z "},"Ì":{"ha":542,"x_min":28,"x_max":514,"o":"m 468 746 l 297 746 l 458 697 l 319 0 l 28 0 l 222 972 l 514 972 l 468 746 m 319 1038 l 222 1232 l 410 1232 l 449 1038 l 319 1038 z "},"Í":{"ha":574,"x_min":28,"x_max":546,"o":"m 468 746 l 297 746 l 458 697 l 319 0 l 28 0 l 222 972 l 514 972 l 468 746 m 546 1232 l 449 1038 l 319 1038 l 358 1232 l 546 1232 z "},"Î":{"ha":607,"x_min":28,"x_max":579,"o":"m 468 746 l 297 746 l 458 697 l 319 0 l 28 0 l 222 972 l 514 972 l 468 746 m 433 1038 l 404 1154 l 336 1038 l 190 1038 l 319 1232 l 514 1232 l 579 1038 l 433 1038 z "},"Ï":{"ha":656,"x_min":28,"x_max":628,"o":"m 28 0 l 222 972 l 514 972 l 468 746 l 297 746 l 458 697 l 319 0 l 28 0 m 417 1038 l 449 1199 l 628 1199 l 594 1038 l 417 1038 m 174 1199 l 351 1199 l 319 1038 l 142 1038 l 174 1199 z "},"Ð":{"ha":1433,"x_min":28,"x_max":1410,"o":"m 1007 0 l 113 0 l 183 357 l 28 357 l 74 583 l 229 583 l 307 972 l 1243 972 q 1315 956 1282 972 q 1369 913 1347 940 q 1400 851 1390 886 q 1401 779 1410 817 l 1293 235 q 1256 140 1283 183 q 1192 66 1229 97 q 1107 17 1154 35 q 1007 0 1060 0 m 390 746 l 543 697 l 521 583 l 822 583 l 776 357 l 475 357 l 449 226 l 974 226 q 994 234 985 226 q 1006 253 1003 242 l 1096 707 q 1089 734 1099 722 q 1064 746 1079 746 l 390 746 z "},"Ñ":{"ha":1351,"x_min":28,"x_max":1324,"o":"m 628 0 l 474 769 l 301 769 l 464 721 l 319 0 l 28 0 l 222 972 l 725 972 l 879 203 l 1032 972 l 1324 972 l 1129 0 l 628 0 m 553 1088 q 561 1113 553 1100 q 582 1143 572 1128 l 601 1174 q 649 1217 621 1201 q 710 1232 678 1232 q 789 1206 754 1232 q 838 1140 824 1181 l 838 1139 l 900 1232 l 944 1232 q 969 1225 958 1232 q 987 1207 981 1218 q 993 1183 993 1196 q 986 1158 993 1171 l 954 1101 q 906 1054 936 1071 q 842 1038 876 1038 l 811 1038 q 744 1060 774 1038 q 706 1119 714 1083 l 657 1038 l 601 1038 q 576 1044 588 1038 q 559 1063 565 1051 q 553 1088 553 1074 z "},"Ò":{"ha":1215,"x_min":24,"x_max":1193,"o":"m 1026 972 q 1097 956 1064 972 q 1151 913 1129 940 q 1183 851 1174 886 q 1185 779 1193 817 l 1056 131 q 999 36 1044 72 q 896 0 954 0 l 190 0 q 119 16 151 0 q 65 59 86 32 q 33 122 43 86 q 31 194 24 157 l 161 842 q 217 936 172 900 q 319 972 261 972 l 1026 972 m 261 746 l 424 697 l 338 265 q 344 238 335 250 q 369 226 354 226 l 954 226 l 793 275 l 879 707 q 872 734 882 722 q 847 746 863 746 l 261 746 m 747 1232 l 786 1038 l 657 1038 l 560 1232 l 747 1232 z "},"Ó":{"ha":1215,"x_min":24,"x_max":1193,"o":"m 1026 972 q 1097 956 1064 972 q 1151 913 1129 940 q 1183 851 1174 886 q 1185 779 1193 817 l 1056 131 q 999 36 1044 72 q 896 0 954 0 l 190 0 q 119 16 151 0 q 65 59 86 32 q 33 122 43 86 q 31 194 24 157 l 161 842 q 217 936 172 900 q 319 972 261 972 l 1026 972 m 261 746 l 424 697 l 338 265 q 344 238 335 250 q 369 226 354 226 l 954 226 l 793 275 l 879 707 q 872 734 882 722 q 847 746 863 746 l 261 746 m 679 1232 l 867 1232 l 769 1038 l 640 1038 l 679 1232 z "},"Ô":{"ha":1215,"x_min":24,"x_max":1193,"o":"m 1026 972 q 1097 956 1064 972 q 1151 913 1129 940 q 1183 851 1174 886 q 1185 779 1193 817 l 1056 131 q 999 36 1044 72 q 896 0 954 0 l 190 0 q 119 16 151 0 q 65 59 86 32 q 33 122 43 86 q 31 194 24 157 l 161 842 q 217 936 172 900 q 319 972 261 972 l 1026 972 m 424 697 l 338 265 q 344 238 335 250 q 369 226 354 226 l 954 226 l 793 275 l 879 707 q 872 734 882 722 q 847 746 863 746 l 261 746 l 424 697 m 494 1038 l 624 1232 l 818 1232 l 883 1038 l 738 1038 l 708 1154 l 640 1038 l 494 1038 z "},"Õ":{"ha":1215,"x_min":24,"x_max":1193,"o":"m 31 194 l 161 842 q 217 936 172 900 q 319 972 261 972 l 1026 972 q 1097 956 1064 972 q 1151 913 1129 940 q 1183 851 1174 886 q 1185 779 1193 817 l 1056 131 q 999 36 1044 72 q 896 0 954 0 l 190 0 q 119 16 151 0 q 65 59 86 32 q 33 122 43 86 q 31 194 24 157 m 261 746 l 424 697 l 338 265 q 344 238 335 250 q 369 226 354 226 l 954 226 l 793 275 l 879 707 q 872 734 882 722 q 847 746 863 746 l 261 746 m 493 1113 q 514 1143 504 1128 q 535 1174 524 1158 q 581 1217 553 1201 q 642 1232 610 1232 q 721 1206 686 1232 q 769 1140 756 1181 l 769 1139 l 832 1232 l 876 1232 q 901 1225 890 1232 q 919 1207 913 1218 q 926 1183 925 1196 q 919 1158 926 1171 l 886 1101 q 838 1054 868 1071 q 774 1038 808 1038 l 743 1038 q 676 1060 706 1038 q 638 1119 646 1083 l 589 1038 l 533 1038 q 508 1044 519 1038 q 491 1063 497 1051 q 485 1087 485 1074 q 493 1113 485 1100 z "},"Ö":{"ha":1215,"x_min":24,"x_max":1193,"o":"m 1026 972 q 1097 956 1064 972 q 1151 913 1129 940 q 1183 851 1174 886 q 1185 779 1193 817 l 1056 131 q 999 36 1044 72 q 896 0 954 0 l 190 0 q 119 16 151 0 q 65 59 86 32 q 33 122 43 86 q 31 194 24 157 l 161 842 q 217 936 172 900 q 319 972 261 972 l 1026 972 m 424 697 l 338 265 q 344 238 335 250 q 369 226 354 226 l 954 226 l 793 275 l 879 707 q 872 734 882 722 q 847 746 863 746 l 261 746 l 424 697 m 738 1038 l 769 1199 l 949 1199 l 915 1038 l 738 1038 m 494 1199 l 672 1199 l 640 1038 l 463 1038 l 494 1199 z "},"×":{"ha":867,"x_min":28,"x_max":838,"o":"m 744 243 l 550 81 l 399 292 l 186 81 l 28 246 l 263 481 l 96 713 l 271 892 l 440 658 l 672 892 l 838 726 l 579 469 l 744 243 z "},"Ø":{"ha":1222,"x_min":26,"x_max":1196,"o":"m 1194 972 l 1149 919 q 1185 856 1174 892 q 1188 779 1196 819 l 1058 131 q 1003 36 1047 72 q 900 0 958 0 l 28 0 l 74 53 q 38 117 49 81 q 35 194 26 154 l 164 842 q 219 936 175 900 q 322 972 264 972 l 1194 972 m 958 226 l 796 275 l 857 583 l 549 226 l 958 226 m 426 697 l 365 389 l 674 746 l 264 746 l 426 697 z "},"Ù":{"ha":1219,"x_min":24,"x_max":1192,"o":"m 190 0 q 119 16 151 0 q 65 59 86 32 q 33 122 43 86 q 31 194 24 157 l 186 972 l 478 972 l 339 275 l 176 226 l 724 226 q 744 234 735 226 q 756 253 753 242 l 900 972 l 1192 972 l 1024 131 q 967 36 1013 72 q 864 0 922 0 l 190 0 m 544 1232 l 733 1232 l 772 1038 l 642 1038 l 544 1232 z "},"Ú":{"ha":1219,"x_min":24,"x_max":1192,"o":"m 190 0 q 119 16 151 0 q 65 59 86 32 q 33 122 43 86 q 31 194 24 157 l 186 972 l 478 972 l 339 275 l 176 226 l 724 226 q 744 234 735 226 q 756 253 753 242 l 900 972 l 1192 972 l 1024 131 q 967 36 1013 72 q 864 0 922 0 l 190 0 m 665 1232 l 853 1232 l 756 1038 l 626 1038 l 665 1232 z "},"Û":{"ha":1219,"x_min":24,"x_max":1192,"o":"m 190 0 q 119 16 151 0 q 65 59 86 32 q 33 122 43 86 q 31 194 24 157 l 186 972 l 478 972 l 339 275 l 176 226 l 724 226 q 744 234 735 226 q 756 253 753 242 l 900 972 l 1192 972 l 1024 131 q 967 36 1013 72 q 864 0 922 0 l 190 0 m 626 1232 l 821 1232 l 885 1038 l 739 1038 l 710 1154 l 642 1038 l 496 1038 l 626 1232 z "},"Ü":{"ha":1219,"x_min":24,"x_max":1192,"o":"m 190 0 q 119 16 151 0 q 65 59 86 32 q 33 122 43 86 q 31 194 24 157 l 186 972 l 478 972 l 339 275 l 176 226 l 724 226 q 744 234 735 226 q 756 253 753 242 l 900 972 l 1192 972 l 1024 131 q 967 36 1013 72 q 864 0 922 0 l 190 0 m 772 1199 l 950 1199 l 918 1038 l 739 1038 l 772 1199 m 464 1038 l 496 1199 l 675 1199 l 642 1038 l 464 1038 z "},"Ý":{"ha":1157,"x_min":28,"x_max":1129,"o":"m 1129 972 l 651 389 l 579 0 l 263 0 l 326 340 l 499 340 l 336 389 l 28 972 l 336 972 l 514 615 l 789 972 l 1129 972 m 708 1232 l 611 1038 l 482 1038 l 521 1232 l 708 1232 z "},"Þ":{"ha":1343,"x_min":28,"x_max":1319,"o":"m 1172 843 q 1235 828 1206 843 q 1283 790 1264 814 q 1311 736 1303 767 q 1313 672 1319 706 l 1233 276 q 1178 182 1222 218 q 1075 146 1133 146 l 365 146 l 336 0 l 28 0 l 222 972 l 531 972 l 504 843 l 1172 843 m 935 372 q 955 380 946 372 q 967 399 964 388 l 1001 576 q 995 603 1004 592 q 971 615 986 615 l 288 615 l 449 567 l 410 372 l 935 372 z "},"ß":{"ha":1218,"x_min":28,"x_max":1194,"o":"m 181 764 q 214 848 190 810 q 271 914 238 886 q 347 957 304 942 q 435 972 389 972 l 1028 972 q 1099 956 1067 972 q 1153 913 1132 940 q 1185 851 1175 886 q 1188 779 1194 817 l 1156 622 q 1111 548 1147 578 q 1029 518 1075 518 l 1050 518 q 1106 505 1081 518 q 1150 470 1132 492 q 1176 421 1168 449 q 1176 364 1183 393 l 1129 131 q 1074 36 1118 72 q 971 0 1029 0 l 646 0 q 574 16 607 0 q 520 59 542 32 q 489 122 499 86 q 488 194 479 157 l 513 324 l 772 324 l 753 226 l 831 226 q 851 234 842 226 q 863 253 860 242 l 889 382 q 882 409 892 397 q 857 421 872 421 l 649 421 l 688 615 l 836 615 q 856 623 847 615 q 868 642 865 631 l 881 707 q 874 734 883 722 q 849 746 864 746 l 538 746 q 497 731 514 746 q 475 693 479 717 l 335 0 l 28 0 l 181 764 z "},"à":{"ha":1219,"x_min":28,"x_max":1196,"o":"m 796 275 l 375 275 l 319 0 l 28 0 l 196 842 q 252 936 207 900 q 356 972 297 972 l 1029 972 q 1101 956 1068 972 q 1155 913 1133 940 q 1186 851 1176 886 q 1188 779 1196 817 l 1032 0 l 740 0 l 796 275 m 842 503 l 882 707 q 875 734 885 722 q 850 746 865 746 l 496 746 q 464 719 468 746 l 419 503 l 842 503 m 765 1232 l 804 1038 l 675 1038 l 578 1232 l 765 1232 z "},"á":{"ha":1219,"x_min":28,"x_max":1196,"o":"m 796 275 l 375 275 l 319 0 l 28 0 l 196 842 q 252 936 207 900 q 356 972 297 972 l 1029 972 q 1101 956 1068 972 q 1155 913 1133 940 q 1186 851 1176 886 q 1188 779 1196 817 l 1032 0 l 740 0 l 796 275 m 419 503 l 842 503 l 882 707 q 875 734 885 722 q 850 746 865 746 l 496 746 q 464 719 468 746 l 419 503 m 697 1232 l 885 1232 l 788 1038 l 658 1038 l 697 1232 z "},"â":{"ha":1219,"x_min":28,"x_max":1196,"o":"m 740 0 l 796 275 l 375 275 l 319 0 l 28 0 l 196 842 q 252 936 207 900 q 356 972 297 972 l 1029 972 q 1101 956 1068 972 q 1155 913 1133 940 q 1186 851 1176 886 q 1188 779 1196 817 l 1032 0 l 740 0 m 419 503 l 842 503 l 882 707 q 875 734 885 722 q 850 746 865 746 l 496 746 q 464 719 468 746 l 419 503 m 529 1038 l 658 1232 l 853 1232 l 918 1038 l 772 1038 l 743 1154 l 675 1038 l 529 1038 z "},"ã":{"ha":1219,"x_min":28,"x_max":1196,"o":"m 28 0 l 196 842 q 252 936 207 900 q 356 972 297 972 l 1029 972 q 1101 956 1068 972 q 1155 913 1133 940 q 1186 851 1176 886 q 1188 779 1196 817 l 1032 0 l 740 0 l 796 275 l 375 275 l 319 0 l 28 0 m 842 503 l 882 707 q 875 734 885 722 q 850 746 865 746 l 496 746 q 464 719 468 746 l 419 503 l 842 503 m 522 1088 q 531 1113 522 1100 q 551 1143 542 1128 l 571 1174 q 619 1217 590 1201 q 679 1232 647 1232 q 757 1206 722 1232 q 807 1140 792 1181 l 807 1139 l 869 1232 l 914 1232 q 939 1225 928 1232 q 956 1207 950 1218 q 963 1183 963 1196 q 956 1158 963 1171 l 922 1101 q 876 1054 906 1071 q 811 1038 846 1038 l 779 1038 q 713 1060 742 1038 q 674 1119 683 1083 l 626 1038 l 571 1038 q 545 1044 557 1038 q 528 1063 533 1051 q 522 1088 522 1074 z "},"ä":{"ha":1219,"x_min":28,"x_max":1196,"o":"m 796 275 l 375 275 l 319 0 l 28 0 l 196 842 q 252 936 207 900 q 356 972 297 972 l 1029 972 q 1101 956 1068 972 q 1155 913 1133 940 q 1186 851 1176 886 q 1188 779 1196 817 l 1032 0 l 740 0 l 796 275 m 842 503 l 882 707 q 875 734 885 722 q 850 746 865 746 l 496 746 q 464 719 468 746 l 419 503 l 842 503 m 788 1038 l 821 1199 l 999 1199 l 967 1038 l 788 1038 m 513 1038 l 544 1199 l 724 1199 l 690 1038 l 513 1038 z "},"å":{"ha":1219,"x_min":28,"x_max":1196,"o":"m 28 0 l 196 842 q 252 936 207 900 q 356 972 297 972 l 1029 972 q 1101 956 1068 972 q 1155 913 1133 940 q 1186 851 1176 886 q 1188 779 1196 817 l 1032 0 l 740 0 l 796 275 l 375 275 l 319 0 l 28 0 m 419 503 l 842 503 l 882 707 q 875 734 885 722 q 850 746 865 746 l 496 746 q 464 719 468 746 l 419 503 m 567 1075 l 589 1204 q 601 1224 592 1215 q 621 1232 610 1232 l 847 1232 q 872 1221 863 1232 q 879 1194 882 1210 l 857 1064 q 825 1038 853 1038 l 599 1038 q 574 1049 583 1038 q 567 1075 564 1060 m 676 1108 q 688 1101 681 1101 l 753 1101 q 768 1115 765 1101 l 774 1147 q 758 1167 776 1167 l 693 1167 q 678 1153 681 1167 l 672 1121 q 676 1108 671 1114 z "},"æ":{"ha":1871,"x_min":28,"x_max":1843,"o":"m 796 275 l 375 275 l 319 0 l 28 0 l 196 842 q 252 936 207 900 q 356 972 297 972 l 1843 972 l 1797 746 l 1181 746 l 1151 592 l 1671 592 l 1629 381 l 1108 381 l 1076 226 l 1693 226 l 1649 0 l 746 0 l 796 275 m 842 503 l 890 746 l 469 746 l 419 503 l 842 503 z "},"ç":{"ha":1188,"x_min":24,"x_max":1164,"o":"m 31 171 l 165 842 q 221 936 176 900 q 324 972 265 972 l 997 972 q 1069 956 1036 972 q 1123 913 1101 940 q 1154 851 1144 886 q 1157 779 1164 817 l 1131 649 l 839 649 l 851 707 q 844 734 854 722 q 819 746 835 746 l 464 746 q 444 738 453 746 q 432 719 435 731 l 342 265 q 349 238 339 250 q 374 226 358 226 l 721 226 q 753 253 749 226 l 768 324 l 1060 324 l 1021 131 q 965 36 1010 72 q 861 0 919 0 l 590 0 q 635 -53 619 -24 q 644 -136 650 -82 q 613 -223 640 -194 q 531 -268 585 -251 l 436 -292 l 453 -158 l 501 -146 q 524 -114 524 -136 q 503 -81 524 -92 l 457 -49 l 463 0 l 171 0 q 108 14 138 0 q 60 52 79 28 q 32 107 40 76 q 31 171 24 138 z "},"è":{"ha":1157,"x_min":28,"x_max":1129,"o":"m 913 372 l 394 372 l 365 226 l 981 226 l 935 0 l 28 0 l 222 972 l 1129 972 l 1085 746 l 468 746 l 439 600 l 958 600 l 913 372 m 554 1232 l 743 1232 l 782 1038 l 651 1038 l 554 1232 z "},"é":{"ha":1157,"x_min":28,"x_max":1129,"o":"m 913 372 l 394 372 l 365 226 l 981 226 l 935 0 l 28 0 l 222 972 l 1129 972 l 1085 746 l 468 746 l 439 600 l 958 600 l 913 372 m 618 1038 l 657 1232 l 844 1232 l 747 1038 l 618 1038 z "},"ê":{"ha":1157,"x_min":28,"x_max":1129,"o":"m 468 746 l 439 600 l 958 600 l 913 372 l 394 372 l 365 226 l 981 226 l 935 0 l 28 0 l 222 972 l 1129 972 l 1085 746 l 468 746 m 507 1038 l 638 1232 l 832 1232 l 896 1038 l 750 1038 l 721 1154 l 653 1038 l 507 1038 z "},"ë":{"ha":1157,"x_min":28,"x_max":1129,"o":"m 468 746 l 439 600 l 958 600 l 913 372 l 394 372 l 365 226 l 981 226 l 935 0 l 28 0 l 222 972 l 1129 972 l 1085 746 l 468 746 m 783 1199 l 961 1199 l 929 1038 l 750 1038 l 783 1199 m 475 1038 l 507 1199 l 686 1199 l 653 1038 l 475 1038 z "},"ì":{"ha":542,"x_min":28,"x_max":514,"o":"m 28 0 l 222 972 l 514 972 l 319 0 l 28 0 m 222 1232 l 410 1232 l 449 1038 l 319 1038 l 222 1232 z "},"í":{"ha":574,"x_min":28,"x_max":546,"o":"m 28 0 l 222 972 l 514 972 l 319 0 l 28 0 m 319 1038 l 358 1232 l 546 1232 l 449 1038 l 319 1038 z "},"î":{"ha":607,"x_min":28,"x_max":579,"o":"m 222 972 l 514 972 l 319 0 l 28 0 l 222 972 m 579 1038 l 433 1038 l 404 1154 l 336 1038 l 190 1038 l 319 1232 l 514 1232 l 579 1038 z "},"ï":{"ha":656,"x_min":28,"x_max":628,"o":"m 28 0 l 222 972 l 514 972 l 319 0 l 28 0 m 417 1038 l 449 1199 l 628 1199 l 594 1038 l 417 1038 m 142 1038 l 174 1199 l 351 1199 l 319 1038 l 142 1038 z "},"ð":{"ha":1433,"x_min":28,"x_max":1410,"o":"m 1007 0 l 113 0 l 183 357 l 28 357 l 74 583 l 229 583 l 307 972 l 1243 972 q 1315 956 1282 972 q 1369 913 1347 940 q 1400 851 1390 886 q 1401 779 1410 817 l 1293 235 q 1256 140 1283 183 q 1192 66 1229 97 q 1107 17 1154 35 q 1007 0 1060 0 m 449 226 l 974 226 q 994 234 985 226 q 1006 253 1003 242 l 1096 707 q 1089 734 1099 722 q 1064 746 1079 746 l 553 746 l 521 583 l 822 583 l 776 357 l 475 357 l 449 226 z "},"ñ":{"ha":1351,"x_min":28,"x_max":1324,"o":"m 628 0 l 474 769 l 319 0 l 28 0 l 222 972 l 725 972 l 879 203 l 1032 972 l 1324 972 l 1129 0 l 628 0 m 582 1143 l 601 1174 q 649 1217 621 1201 q 710 1232 678 1232 q 789 1206 754 1232 q 838 1140 824 1181 l 838 1139 l 900 1232 l 944 1232 q 969 1225 958 1232 q 987 1207 981 1218 q 993 1183 993 1196 q 986 1158 993 1171 l 954 1101 q 906 1054 936 1071 q 842 1038 876 1038 l 811 1038 q 744 1060 774 1038 q 706 1119 714 1083 l 657 1038 l 601 1038 q 576 1044 588 1038 q 559 1063 565 1051 q 553 1087 553 1074 q 561 1113 553 1100 q 582 1143 572 1128 z "},"ò":{"ha":1215,"x_min":24,"x_max":1193,"o":"m 1026 972 q 1097 956 1064 972 q 1151 913 1129 940 q 1183 851 1174 886 q 1185 779 1193 817 l 1056 131 q 999 36 1044 72 q 896 0 954 0 l 190 0 q 119 16 151 0 q 65 59 86 32 q 33 122 43 86 q 31 194 24 157 l 161 842 q 217 936 172 900 q 319 972 261 972 l 1026 972 m 344 239 q 369 226 354 226 l 757 226 q 789 253 782 226 l 879 707 q 872 734 882 722 q 847 746 863 746 l 460 746 q 440 738 449 746 q 428 719 431 731 l 338 265 q 344 239 335 250 m 747 1232 l 786 1038 l 657 1038 l 560 1232 l 747 1232 z "},"ó":{"ha":1215,"x_min":24,"x_max":1193,"o":"m 1026 972 q 1097 956 1064 972 q 1151 913 1129 940 q 1183 851 1174 886 q 1185 779 1193 817 l 1056 131 q 999 36 1044 72 q 896 0 954 0 l 190 0 q 119 16 151 0 q 65 59 86 32 q 33 122 43 86 q 31 194 24 157 l 161 842 q 217 936 172 900 q 319 972 261 972 l 1026 972 m 344 239 q 369 226 354 226 l 757 226 q 789 253 782 226 l 879 707 q 872 734 882 722 q 847 746 863 746 l 460 746 q 440 738 449 746 q 428 719 431 731 l 338 265 q 344 239 335 250 m 679 1232 l 867 1232 l 769 1038 l 640 1038 l 679 1232 z "},"ô":{"ha":1215,"x_min":24,"x_max":1193,"o":"m 1026 972 q 1097 956 1064 972 q 1151 913 1129 940 q 1183 851 1174 886 q 1185 779 1193 817 l 1056 131 q 999 36 1044 72 q 896 0 954 0 l 190 0 q 119 16 151 0 q 65 59 86 32 q 33 122 43 86 q 31 194 24 157 l 161 842 q 217 936 172 900 q 319 972 261 972 l 1026 972 m 344 239 q 369 226 354 226 l 757 226 q 789 253 782 226 l 879 707 q 872 734 882 722 q 847 746 863 746 l 460 746 q 440 738 449 746 q 428 719 431 731 l 338 265 q 344 239 335 250 m 624 1232 l 818 1232 l 883 1038 l 738 1038 l 708 1154 l 640 1038 l 494 1038 l 624 1232 z "},"õ":{"ha":1215,"x_min":24,"x_max":1193,"o":"m 31 194 l 161 842 q 217 936 172 900 q 319 972 261 972 l 1026 972 q 1097 956 1064 972 q 1151 913 1129 940 q 1183 851 1174 886 q 1185 779 1193 817 l 1056 131 q 999 36 1044 72 q 896 0 954 0 l 190 0 q 119 16 151 0 q 65 59 86 32 q 33 122 43 86 q 31 194 24 157 m 344 239 q 369 226 354 226 l 757 226 q 789 253 782 226 l 879 707 q 872 734 882 722 q 847 746 863 746 l 460 746 q 440 738 449 746 q 428 719 431 731 l 338 265 q 344 239 335 250 m 493 1113 q 514 1143 504 1128 q 535 1174 524 1158 q 581 1217 553 1201 q 642 1232 610 1232 q 721 1206 686 1232 q 769 1140 756 1181 l 769 1139 l 832 1232 l 876 1232 q 901 1225 890 1232 q 919 1207 913 1218 q 926 1183 925 1196 q 919 1158 926 1171 l 886 1101 q 838 1054 868 1071 q 774 1038 808 1038 l 743 1038 q 676 1060 706 1038 q 638 1119 646 1083 l 589 1038 l 533 1038 q 508 1044 519 1038 q 491 1063 497 1051 q 485 1087 485 1074 q 493 1113 485 1100 z "},"ö":{"ha":1215,"x_min":24,"x_max":1193,"o":"m 1026 972 q 1097 956 1064 972 q 1151 913 1129 940 q 1183 851 1174 886 q 1185 779 1193 817 l 1056 131 q 999 36 1044 72 q 896 0 954 0 l 190 0 q 119 16 151 0 q 65 59 86 32 q 33 122 43 86 q 31 194 24 157 l 161 842 q 217 936 172 900 q 319 972 261 972 l 1026 972 m 344 239 q 369 226 354 226 l 757 226 q 789 253 782 226 l 879 707 q 872 734 882 722 q 847 746 863 746 l 460 746 q 440 738 449 746 q 428 719 431 731 l 338 265 q 344 239 335 250 m 738 1038 l 769 1199 l 949 1199 l 915 1038 l 738 1038 m 463 1038 l 494 1199 l 672 1199 l 640 1038 l 463 1038 z "},"÷":{"ha":915,"x_min":28,"x_max":886,"o":"m 842 372 l 28 372 l 74 600 l 886 600 l 842 372 m 593 688 l 379 688 l 425 915 l 639 915 l 593 688 m 490 56 l 276 56 l 321 283 l 535 283 l 490 56 z "},"ø":{"ha":1222,"x_min":26,"x_max":1196,"o":"m 900 0 l 28 0 l 74 53 q 38 117 49 81 q 35 194 26 154 l 164 842 q 219 936 175 900 q 322 972 264 972 l 1194 972 l 1149 919 q 1185 856 1174 892 q 1188 779 1196 819 l 1058 131 q 1003 36 1047 72 q 900 0 958 0 m 674 746 l 463 746 q 442 738 451 746 q 431 719 433 731 l 365 389 l 674 746 m 549 226 l 760 226 q 780 234 771 226 q 792 253 789 242 l 857 583 l 549 226 z "},"ù":{"ha":1219,"x_min":24,"x_max":1192,"o":"m 338 265 q 344 238 335 250 q 369 226 354 226 l 724 226 q 744 234 735 226 q 756 253 753 242 l 900 972 l 1192 972 l 1024 131 q 967 36 1013 72 q 864 0 922 0 l 190 0 q 119 16 151 0 q 65 59 86 32 q 33 122 43 86 q 31 194 24 157 l 186 972 l 478 972 l 338 265 m 733 1232 l 772 1038 l 642 1038 l 544 1232 l 733 1232 z "},"ú":{"ha":1219,"x_min":24,"x_max":1192,"o":"m 338 265 q 344 238 335 250 q 369 226 354 226 l 724 226 q 744 234 735 226 q 756 253 753 242 l 900 972 l 1192 972 l 1024 131 q 967 36 1013 72 q 864 0 922 0 l 190 0 q 119 16 151 0 q 65 59 86 32 q 33 122 43 86 q 31 194 24 157 l 186 972 l 478 972 l 338 265 m 665 1232 l 853 1232 l 756 1038 l 626 1038 l 665 1232 z "},"û":{"ha":1219,"x_min":24,"x_max":1192,"o":"m 338 265 q 344 238 335 250 q 369 226 354 226 l 724 226 q 744 234 735 226 q 756 253 753 242 l 900 972 l 1192 972 l 1024 131 q 967 36 1013 72 q 864 0 922 0 l 190 0 q 119 16 151 0 q 65 59 86 32 q 33 122 43 86 q 31 194 24 157 l 186 972 l 478 972 l 338 265 m 626 1232 l 821 1232 l 885 1038 l 739 1038 l 710 1154 l 642 1038 l 496 1038 l 626 1232 z "},"ü":{"ha":1219,"x_min":24,"x_max":1192,"o":"m 338 265 q 344 238 335 250 q 369 226 354 226 l 724 226 q 744 234 735 226 q 756 253 753 242 l 900 972 l 1192 972 l 1024 131 q 967 36 1013 72 q 864 0 922 0 l 190 0 q 119 16 151 0 q 65 59 86 32 q 33 122 43 86 q 31 194 24 157 l 186 972 l 478 972 l 338 265 m 772 1199 l 950 1199 l 918 1038 l 739 1038 l 772 1199 m 464 1038 l 496 1199 l 675 1199 l 642 1038 l 464 1038 z "},"ý":{"ha":1157,"x_min":28,"x_max":1129,"o":"m 1129 972 l 651 389 l 579 0 l 263 0 l 336 389 l 28 972 l 336 972 l 514 615 l 789 972 l 1129 972 m 708 1232 l 611 1038 l 482 1038 l 521 1232 l 708 1232 z "},"þ":{"ha":1343,"x_min":28,"x_max":1319,"o":"m 1172 843 q 1235 828 1206 843 q 1283 790 1264 814 q 1311 736 1303 767 q 1313 672 1319 706 l 1233 276 q 1178 182 1222 218 q 1075 146 1133 146 l 365 146 l 336 0 l 28 0 l 222 972 l 531 972 l 504 843 l 1172 843 m 956 381 q 967 399 964 388 l 1001 576 q 995 603 1004 592 q 971 615 986 615 l 458 615 l 410 372 l 935 372 q 956 381 946 372 z "},"ÿ":{"ha":1157,"x_min":28,"x_max":1129,"o":"m 651 389 l 579 0 l 263 0 l 336 389 l 28 972 l 336 972 l 514 615 l 789 972 l 1129 972 l 651 389 m 351 1038 l 385 1199 l 563 1199 l 531 1038 l 351 1038 m 838 1199 l 806 1038 l 628 1038 l 660 1199 l 838 1199 z "},"ı":{"ha":510,"x_min":28,"x_max":482,"o":"m 28 0 l 222 972 l 482 972 l 288 0 l 28 0 z "},"Ł":{"ha":1125,"x_min":28,"x_max":1097,"o":"m 556 536 l 504 275 l 332 226 l 1097 226 l 1051 0 l 125 0 l 208 418 l 28 357 l 74 615 l 261 679 l 319 972 l 643 972 l 608 797 l 886 892 l 842 632 l 556 536 z "},"ł":{"ha":1125,"x_min":28,"x_max":1097,"o":"m 608 797 l 886 892 l 842 632 l 556 536 l 494 226 l 1097 226 l 1051 0 l 125 0 l 208 418 l 28 357 l 74 615 l 261 679 l 319 972 l 643 972 l 608 797 z "},"Œ":{"ha":1867,"x_min":24,"x_max":1839,"o":"m 1839 972 l 1794 746 l 1007 746 l 1168 697 l 1147 592 l 1668 592 l 1625 381 l 1106 381 l 1082 265 q 1089 238 1079 250 q 1114 226 1099 226 l 1690 226 l 1644 0 l 190 0 q 119 16 151 0 q 65 59 86 32 q 33 122 43 86 q 31 194 24 157 l 161 842 q 217 936 172 900 q 319 972 261 972 l 1839 972 m 261 746 l 424 697 l 338 265 q 344 238 335 250 q 369 226 354 226 l 783 226 l 886 746 l 261 746 z "},"œ":{"ha":1867,"x_min":24,"x_max":1839,"o":"m 1839 972 l 1794 746 l 1175 746 l 1147 592 l 1668 592 l 1625 381 l 1106 381 l 1075 226 l 1690 226 l 1644 0 l 190 0 q 119 16 151 0 q 65 59 86 32 q 33 122 43 86 q 31 194 24 157 l 161 842 q 217 936 172 900 q 319 972 261 972 l 1839 972 m 344 239 q 369 226 354 226 l 757 226 q 789 253 782 226 l 879 707 q 872 734 882 722 q 847 746 863 746 l 453 746 q 422 719 426 746 l 338 265 q 344 239 335 250 z "},"Š":{"ha":1176,"x_min":24,"x_max":1154,"o":"m 32 214 l 47 292 l 339 292 l 333 265 q 340 238 331 250 q 365 226 350 226 l 913 226 l 750 275 l 765 350 q 758 377 768 365 q 733 389 749 389 l 283 389 q 206 407 242 389 q 146 454 169 425 q 112 522 122 483 q 110 603 101 561 l 154 829 q 216 932 167 892 q 329 972 265 972 l 971 972 q 1049 954 1013 972 q 1108 907 1085 936 q 1143 840 1132 878 q 1146 760 1154 801 l 1129 681 l 838 681 l 843 707 q 836 734 846 722 q 811 746 826 746 l 258 746 l 419 697 l 408 639 q 415 612 406 624 q 440 600 425 600 l 808 600 q 876 600 850 600 l 903 599 q 976 577 943 596 q 1031 529 1008 558 q 1063 463 1053 500 q 1064 386 1072 426 l 1015 143 q 953 40 1003 81 q 840 0 904 0 l 206 0 q 128 18 164 0 q 68 65 92 36 q 34 133 44 94 q 32 214 24 172 m 671 1232 l 700 1115 l 768 1232 l 914 1232 l 783 1038 l 589 1038 l 525 1232 l 671 1232 z "},"š":{"ha":1176,"x_min":24,"x_max":1154,"o":"m 32 214 l 47 292 l 339 292 l 333 265 q 340 238 331 250 q 365 226 350 226 l 714 226 q 734 234 725 226 q 746 253 743 242 l 765 350 q 758 377 768 365 q 733 389 749 389 l 283 389 q 206 407 242 389 q 146 454 169 425 q 112 522 122 483 q 110 603 101 561 l 154 829 q 216 932 167 892 q 329 972 265 972 l 971 972 q 1049 954 1013 972 q 1108 907 1085 936 q 1143 840 1132 878 q 1146 760 1154 801 l 1129 681 l 838 681 l 843 707 q 836 734 846 722 q 811 746 826 746 l 456 746 q 424 719 431 746 l 408 639 q 415 612 406 624 q 440 600 425 600 l 808 600 q 876 600 850 600 l 903 599 q 976 577 943 596 q 1031 529 1008 558 q 1063 463 1053 500 q 1064 386 1072 426 l 1015 143 q 953 40 1003 81 q 840 0 904 0 l 206 0 q 128 18 164 0 q 68 65 92 36 q 34 133 44 94 q 32 214 24 172 m 671 1232 l 700 1115 l 768 1232 l 914 1232 l 783 1038 l 589 1038 l 525 1232 l 671 1232 z "},"Ÿ":{"ha":1157,"x_min":28,"x_max":1129,"o":"m 789 972 l 1129 972 l 651 389 l 579 0 l 263 0 l 326 340 l 499 340 l 336 389 l 28 972 l 336 972 l 514 615 l 789 972 m 385 1199 l 563 1199 l 531 1038 l 351 1038 l 385 1199 m 628 1038 l 660 1199 l 838 1199 l 806 1038 l 628 1038 z "},"Ž":{"ha":1222,"x_min":28,"x_max":1194,"o":"m 531 275 l 300 226 l 1097 226 l 1051 0 l 28 0 l 28 226 l 692 697 l 922 746 l 125 746 l 171 972 l 1194 972 l 1194 746 l 531 275 m 514 1232 l 660 1232 l 689 1115 l 757 1232 l 903 1232 l 774 1038 l 579 1038 l 514 1232 z "},"ž":{"ha":1222,"x_min":28,"x_max":1194,"o":"m 1051 0 l 28 0 l 28 226 l 761 746 l 125 746 l 171 972 l 1194 972 l 1194 746 l 463 226 l 1097 226 l 1051 0 m 903 1232 l 774 1038 l 579 1038 l 514 1232 l 660 1232 l 689 1115 l 757 1232 l 903 1232 z "},"ˆ":{"ha":444,"x_min":28,"x_max":417,"o":"m 28 1038 l 157 1232 l 351 1232 l 417 1038 l 271 1038 l 242 1154 l 174 1038 l 28 1038 z "},"ˇ":{"ha":444,"x_min":28,"x_max":417,"o":"m 174 1232 l 203 1115 l 271 1232 l 417 1232 l 288 1038 l 93 1038 l 28 1232 l 174 1232 z "},"˜":{"ha":496,"x_min":28,"x_max":468,"o":"m 185 1232 q 263 1206 229 1232 q 313 1140 297 1181 l 313 1139 l 375 1232 l 419 1232 q 444 1225 433 1232 q 462 1207 456 1218 q 468 1183 468 1196 q 461 1158 468 1171 l 428 1101 q 381 1054 411 1071 q 317 1038 351 1038 l 286 1038 q 219 1060 249 1038 q 179 1119 189 1083 l 132 1038 l 76 1038 q 51 1044 63 1038 q 33 1063 39 1051 q 28 1087 28 1074 q 36 1113 28 1100 q 57 1143 47 1128 l 76 1174 q 124 1217 96 1201 q 185 1232 153 1232 z "},"–":{"ha":994,"x_min":69,"x_max":925,"o":"m 69 372 l 115 600 l 925 600 l 879 372 l 69 372 z "},"—":{"ha":1274,"x_min":69,"x_max":1204,"o":"m 69 372 l 115 600 l 1204 600 l 1158 372 l 69 372 z "},"‘":{"ha":308,"x_min":28,"x_max":282,"o":"m 186 972 l 247 972 q 272 960 263 972 q 279 933 282 949 l 210 583 l 28 583 l 186 972 z "},"’":{"ha":308,"x_min":26,"x_max":281,"o":"m 29 622 l 99 972 l 281 972 l 121 583 l 60 583 q 35 595 44 583 q 29 622 26 607 z "},"‚":{"ha":308,"x_min":26,"x_max":281,"o":"m 29 -124 l 99 226 l 281 226 l 121 -162 l 60 -162 q 35 -151 44 -162 q 29 -124 26 -139 z "},"‛":{"ha":308,"x_min":26,"x_max":281,"o":"m 29 622 l 99 972 l 281 972 l 121 583 l 60 583 q 35 595 44 583 q 29 622 26 607 z "},"“":{"ha":543,"x_min":28,"x_max":517,"o":"m 186 972 l 247 972 q 272 960 263 972 q 279 933 282 949 l 210 583 l 28 583 l 186 972 m 443 583 l 263 583 l 421 972 l 482 972 q 507 960 497 972 q 514 933 517 949 l 443 583 z "},"”":{"ha":542,"x_min":26,"x_max":514,"o":"m 294 583 q 269 595 279 583 q 263 622 260 607 l 332 972 l 514 972 l 356 583 l 294 583 m 29 622 l 99 972 l 281 972 l 121 583 l 60 583 q 35 595 44 583 q 29 622 26 607 z "},"„":{"ha":542,"x_min":26,"x_max":514,"o":"m 294 -162 q 269 -151 279 -162 q 263 -124 260 -139 l 332 226 l 514 226 l 356 -162 l 294 -162 m 29 -124 l 99 226 l 281 226 l 121 -162 l 60 -162 q 35 -151 44 -162 q 29 -124 26 -139 z "},"†":{"ha":990,"x_min":56,"x_max":963,"o":"m 963 972 l 922 778 l 618 778 l 432 -162 l 172 -162 l 360 778 l 56 778 l 96 972 l 392 972 l 428 1135 l 688 1135 l 651 972 l 963 972 z "},"‡":{"ha":1136,"x_min":56,"x_max":1108,"o":"m 506 778 l 201 778 l 242 972 l 538 972 l 574 1135 l 833 1135 l 797 972 l 1108 972 l 1068 778 l 764 778 l 649 194 l 963 194 l 922 0 l 610 0 l 578 -162 l 318 -162 l 350 0 l 56 0 l 96 194 l 389 194 l 506 778 z "},"•":{"ha":369,"x_min":26,"x_max":344,"o":"m 335 572 q 342 546 344 561 l 319 417 q 308 397 317 404 q 288 389 299 389 l 61 389 q 36 400 46 389 q 29 426 26 411 l 51 557 q 63 576 54 568 q 83 583 72 583 l 310 583 q 335 572 325 583 z "},"…":{"ha":964,"x_min":28,"x_max":935,"o":"m 368 0 l 414 226 l 594 226 l 550 0 l 368 0 m 28 0 l 74 226 l 254 226 l 210 0 l 28 0 m 708 0 l 754 226 l 935 226 l 890 0 l 708 0 z "},"‰":{"ha":1844,"x_min":24,"x_max":1821,"o":"m 436 0 l 631 972 l 890 972 l 696 0 l 436 0 m 31 629 l 69 824 q 92 860 74 846 q 133 875 110 875 l 454 875 q 506 851 486 875 q 518 797 525 828 l 479 603 q 457 565 475 579 q 415 551 439 551 l 94 551 q 43 575 63 551 q 31 629 24 599 m 808 175 l 847 369 q 869 407 851 393 q 911 421 888 421 l 1232 421 q 1283 397 1264 421 q 1296 344 1303 374 l 1257 150 q 1235 112 1253 126 q 1193 97 1217 97 l 872 97 q 821 121 840 97 q 808 175 801 144 m 1390 97 q 1340 121 1360 97 q 1326 175 1321 144 l 1365 369 q 1388 407 1371 393 q 1429 421 1406 421 l 1751 421 q 1801 397 1782 421 q 1814 344 1821 374 l 1775 150 q 1753 112 1771 126 q 1713 97 1736 97 l 1390 97 m 1013 233 q 1025 226 1018 226 l 1090 226 q 1106 240 1103 226 l 1111 272 q 1094 292 1114 292 l 1031 292 q 1015 278 1018 292 l 1010 246 q 1013 233 1007 239 m 1532 233 q 1544 226 1536 226 l 1608 226 q 1624 240 1621 226 l 1629 272 q 1614 292 1632 292 l 1549 292 q 1533 278 1536 292 l 1528 246 q 1532 233 1526 239 m 235 688 q 247 681 240 681 l 313 681 q 328 694 325 681 l 333 726 q 330 740 335 733 q 317 746 325 746 l 253 746 q 238 732 240 746 l 232 700 q 235 688 229 693 z "},"‹":{"ha":704,"x_min":28,"x_max":676,"o":"m 89 729 l 676 892 l 624 632 l 264 543 l 565 340 l 514 81 l 28 421 l 89 729 z "},"›":{"ha":704,"x_min":28,"x_max":676,"o":"m 28 81 l 79 340 l 439 429 l 138 632 l 190 892 l 676 551 l 614 243 l 28 81 z "},"⁄":{"ha":1351,"x_min":28,"x_max":1324,"o":"m 28 -162 l 1000 1135 l 1324 1135 l 351 -162 l 28 -162 z "},"€":{"ha":1222,"x_min":28,"x_max":1194,"o":"m 196 518 l 44 518 l 76 681 l 229 681 l 288 972 l 1194 972 l 1149 746 l 533 746 l 521 681 l 1000 681 l 968 518 l 488 518 l 475 454 l 951 454 l 919 292 l 443 292 l 429 226 l 1046 226 l 1000 0 l 93 0 l 151 292 l 28 292 l 60 454 l 183 454 l 196 518 z "},"™":{"ha":788,"x_min":69,"x_max":718,"o":"m 296 729 l 344 972 l 483 972 l 507 826 l 572 972 l 718 972 l 669 729 l 588 729 l 629 924 l 532 729 l 450 729 l 418 924 l 378 729 l 296 729 m 318 915 l 236 915 l 199 729 l 118 729 l 156 915 l 69 915 l 81 972 l 329 972 l 318 915 z "},"∏":{"ha":1261,"x_min":28,"x_max":1238,"o":"m 538 746 q 517 738 526 746 q 506 719 508 731 l 319 -211 l 28 -211 l 239 842 q 294 936 250 900 q 397 972 339 972 l 1071 972 q 1142 956 1110 972 q 1197 913 1175 940 q 1228 851 1218 886 q 1231 779 1238 817 l 1032 -211 l 740 -211 l 924 707 q 917 734 926 722 q 893 746 908 746 l 538 746 z "},"−":{"ha":911,"x_min":28,"x_max":883,"o":"m 28 372 l 74 600 l 883 600 l 838 372 l 28 372 z "},"∞":{"ha":1272,"x_min":24,"x_max":1249,"o":"m 31 414 l 88 697 q 144 791 99 754 q 247 828 189 828 l 592 828 q 642 814 619 828 q 679 778 665 800 q 715 815 693 801 q 765 828 738 828 l 1083 828 q 1153 812 1121 828 q 1208 769 1186 796 q 1239 706 1229 742 q 1242 633 1249 671 l 1185 350 q 1129 256 1174 292 q 1026 219 1085 219 l 681 219 q 630 233 653 219 q 594 269 607 247 q 558 233 581 246 q 507 219 535 219 l 190 219 q 119 235 151 219 q 65 278 86 251 q 33 341 43 306 q 31 414 24 376 m 214 383 q 261 361 232 361 l 460 361 q 501 376 483 361 q 524 414 518 390 l 565 628 q 556 667 571 650 q 518 685 542 685 l 285 685 q 258 676 269 685 q 244 653 247 668 l 201 433 q 214 383 194 406 m 724 385 q 774 361 743 361 l 988 361 q 1014 370 1003 361 q 1028 394 1025 379 l 1071 613 q 1059 663 1078 640 q 1013 685 1040 685 l 813 685 q 772 671 789 685 q 750 633 754 657 l 711 439 q 724 385 704 408 z "},"":{"ha":1344,"x_min":28,"x_max":1372,"o":"m 731 275 l 375 275 l 319 0 l 28 0 l 222 972 l 1158 972 q 1230 956 1197 972 q 1284 913 1263 940 q 1315 851 1306 886 q 1318 779 1325 817 l 1243 406 q 1188 312 1232 349 q 1085 275 1143 275 l 1022 275 l 1372 -503 l 1081 -503 l 731 275 m 944 503 q 965 510 956 503 q 976 528 974 517 l 1011 707 q 1005 734 1014 722 q 981 746 996 746 l 297 746 l 458 697 l 419 503 l 944 503 z "},"":{"ha":2486,"x_min":28,"x_max":2463,"o":"m 28 0 l 74 226 l 951 226 l 789 275 l 804 350 q 797 377 807 365 q 772 389 788 389 l 324 389 q 246 407 282 389 q 185 454 210 425 q 151 522 161 483 q 149 603 140 561 l 193 829 q 255 932 206 892 q 368 972 304 972 l 2315 972 q 2378 958 2349 972 q 2426 920 2407 944 q 2454 865 2446 896 q 2456 801 2463 835 l 2376 406 q 2321 312 2365 349 q 2218 275 2276 275 l 1499 275 l 1660 226 l 1615 0 l 1324 0 l 1424 503 l 2078 503 q 2098 510 2089 503 q 2110 528 2107 517 l 2144 707 q 2138 734 2147 722 q 2114 746 2129 746 l 297 746 l 458 697 l 447 639 q 454 612 444 624 q 479 600 464 600 l 847 600 q 915 600 889 600 l 942 599 q 1015 577 982 596 q 1069 529 1047 558 q 1101 463 1092 500 q 1103 386 1111 426 l 1054 143 q 992 40 1042 81 q 879 0 943 0 l 28 0 z "},"":{"ha":1190,"x_min":24,"x_max":1163,"o":"m 374 226 l 1038 226 l 992 0 l 171 0 q 108 14 138 0 q 60 52 79 28 q 32 107 40 76 q 31 171 24 138 l 165 842 q 221 936 176 900 q 324 972 265 972 l 1163 972 l 1118 746 l 265 746 l 428 697 l 342 265 q 349 238 339 250 q 374 226 358 226 z "},"":{"ha":1399,"x_min":28,"x_max":1372,"o":"m 319 0 l 28 0 l 128 503 l 944 503 q 965 510 956 503 q 976 528 974 517 l 1011 707 q 1005 734 1014 722 q 981 746 996 746 l 176 746 l 222 972 l 1158 972 q 1230 956 1197 972 q 1284 913 1263 940 q 1315 851 1306 886 q 1318 779 1325 817 l 1243 406 q 1188 312 1232 349 q 1085 275 1143 275 l 1022 275 l 1372 -503 l 1081 -503 l 731 275 l 203 275 l 365 226 l 319 0 z "}}}
